<svg xmlns="http://www.w3.org/2000/svg" xmlns:xlink="http://www.w3.org/1999/xlink" width="100" zoomAndPan="magnify" viewBox="0 0 75 74.999997" height="100" preserveAspectRatio="xMidYMid meet" version="1.0"><defs><clipPath id="4238f2b294"><path d="M 6.515625 40 L 68.765625 40 L 68.765625 75 L 6.515625 75 Z M 6.515625 40 " clip-rule="nonzero"/></clipPath><clipPath id="b44c36f5b7"><path d="M 56 0 L 70 0 L 70 9 L 56 9 Z M 56 0 " clip-rule="nonzero"/></clipPath><clipPath id="2d4adb793f"><path d="M 68.246094 -4.523438 L 78.984375 62.117188 L 36.78125 68.917969 L 26.042969 2.277344 Z M 68.246094 -4.523438 " clip-rule="nonzero"/></clipPath><clipPath id="f028067140"><path d="M 68.246094 -4.523438 L 78.984375 62.117188 L 36.78125 68.917969 L 26.042969 2.277344 Z M 68.246094 -4.523438 " clip-rule="nonzero"/></clipPath><clipPath id="21b08fa394"><path d="M 37 2 L 69 2 L 69 68 L 37 68 Z M 37 2 " clip-rule="nonzero"/></clipPath><clipPath id="83d8ed22a8"><path d="M 68.246094 -4.523438 L 78.984375 62.117188 L 36.78125 68.917969 L 26.042969 2.277344 Z M 68.246094 -4.523438 " clip-rule="nonzero"/></clipPath><clipPath id="6a5b7e9ef0"><path d="M 68.246094 -4.523438 L 78.984375 62.117188 L 36.78125 68.917969 L 26.042969 2.277344 Z M 68.246094 -4.523438 " clip-rule="nonzero"/></clipPath><clipPath id="b520b21234"><path d="M 36 1 L 70 1 L 70 69 L 36 69 Z M 36 1 " clip-rule="nonzero"/></clipPath><clipPath id="fcaf911afa"><path d="M 68.246094 -4.523438 L 78.984375 62.117188 L 36.78125 68.917969 L 26.042969 2.277344 Z M 68.246094 -4.523438 " clip-rule="nonzero"/></clipPath><clipPath id="b08bebae3e"><path d="M 68.246094 -4.523438 L 78.984375 62.117188 L 36.78125 68.917969 L 26.042969 2.277344 Z M 68.246094 -4.523438 " clip-rule="nonzero"/></clipPath><clipPath id="2f2e5fe884"><path d="M 6 0 L 19 0 L 19 9 L 6 9 Z M 6 0 " clip-rule="nonzero"/></clipPath><clipPath id="3b0fcf640c"><path d="M -3.738281 61.761719 L 7.273438 -4.832031 L 49.453125 2.140625 L 38.441406 68.734375 Z M -3.738281 61.761719 " clip-rule="nonzero"/></clipPath><clipPath id="a8b43f451d"><path d="M 7.222656 -4.523438 L -3.789062 62.074219 L 38.390625 69.046875 L 49.398438 2.453125 Z M 7.222656 -4.523438 " clip-rule="nonzero"/></clipPath><clipPath id="08065a6731"><path d="M 6 2 L 38 2 L 38 68 L 6 68 Z M 6 2 " clip-rule="nonzero"/></clipPath><clipPath id="97b14567f3"><path d="M -3.738281 61.761719 L 7.273438 -4.832031 L 49.453125 2.140625 L 38.441406 68.734375 Z M -3.738281 61.761719 " clip-rule="nonzero"/></clipPath><clipPath id="957552cba8"><path d="M 7.222656 -4.523438 L -3.789062 62.074219 L 38.390625 69.046875 L 49.398438 2.453125 Z M 7.222656 -4.523438 " clip-rule="nonzero"/></clipPath><clipPath id="37844aafa9"><path d="M 5 1 L 39 1 L 39 69 L 5 69 Z M 5 1 " clip-rule="nonzero"/></clipPath><clipPath id="8fe2fb4478"><path d="M -3.738281 61.761719 L 7.273438 -4.832031 L 49.453125 2.140625 L 38.441406 68.734375 Z M -3.738281 61.761719 " clip-rule="nonzero"/></clipPath><clipPath id="98440ffa2a"><path d="M 7.222656 -4.523438 L -3.789062 62.074219 L 38.390625 69.046875 L 49.398438 2.453125 Z M 7.222656 -4.523438 " clip-rule="nonzero"/></clipPath></defs><path fill="#ffffff" d="M 37.5 65.582031 L 16.605469 44.6875 L 16.605469 43.265625 L 37.5 64.160156 L 41.335938 60.328125 L 58.394531 43.265625 L 58.394531 44.6875 Z M 37.5 65.582031 " fill-opacity="1" fill-rule="nonzero"/><path fill="#ffffff" d="M 37.5 20.738281 L 21.136719 4.375 L 21.136719 3.261719 L 37.5 19.628906 L 53.867188 3.261719 L 53.867188 4.375 L 40.503906 17.738281 Z M 37.5 20.738281 " fill-opacity="1" fill-rule="nonzero"/><g clip-path="url(#4238f2b294)"><path fill="#ffffff" d="M 37.5 75 L 40.960938 71.542969 L 56.347656 56.15625 L 56.347656 54.941406 L 68.75 42.539062 L 68.75 40.414062 L 56.347656 52.816406 L 56.347656 51.179688 L 40.960938 66.566406 L 37.5 70.023438 L 18.65625 51.179688 L 18.65625 52.816406 L 6.253906 40.414062 L 6.253906 42.539062 L 18.65625 54.941406 L 18.65625 56.15625 Z M 37.5 75 " fill-opacity="1" fill-rule="nonzero"/></g><path fill="#ffffff" d="M 41.859375 55.628906 L 61.257812 36.230469 L 61.257812 27.515625 L 37.5 51.269531 L 13.746094 27.515625 L 13.746094 36.230469 L 37.5 59.984375 Z M 14.660156 35.851562 L 14.660156 29.71875 L 37.5 52.558594 L 60.34375 29.71875 L 60.34375 35.851562 L 37.5 58.695312 Z M 14.660156 35.851562 " fill-opacity="1" fill-rule="nonzero"/><path fill="#ffffff" d="M 37.5 46.226562 L 13.746094 22.472656 L 13.746094 13.757812 L 37.5 37.511719 L 61.257812 13.757812 L 61.257812 22.472656 L 41.859375 41.871094 Z M 37.5 46.226562 " fill-opacity="1" fill-rule="nonzero"/><path fill="#ffffff" d="M 41.859375 28.113281 L 61.257812 8.714844 L 61.257812 0 L 37.5 23.753906 L 13.746094 0 L 13.746094 8.714844 L 37.5 32.46875 Z M 14.660156 8.335938 L 14.660156 2.203125 L 37.5 25.046875 L 60.34375 2.203125 L 60.34375 8.335938 L 37.5 31.179688 Z M 14.660156 8.335938 " fill-opacity="1" fill-rule="nonzero"/><g clip-path="url(#b44c36f5b7)"><g clip-path="url(#2d4adb793f)"><g clip-path="url(#f028067140)"><path fill="#ffffff" d="M 57.273438 1.410156 C 57.324219 1.175781 57.011719 1.039062 56.878906 1.246094 C 56.867188 1.265625 56.855469 1.289062 56.851562 1.3125 C 56.703125 1.976562 56.660156 2.632812 56.722656 3.308594 C 56.804688 4.132812 57.042969 4.933594 57.4375 5.664062 C 57.550781 5.867188 57.859375 5.777344 57.84375 5.546875 C 57.839844 5.515625 57.832031 5.488281 57.820312 5.460938 C 57.148438 4.214844 56.964844 2.789062 57.273438 1.410156 Z M 57.261719 0.0976562 C 57.164062 0.3125 57.429688 0.507812 57.605469 0.347656 C 57.625 0.324219 57.640625 0.304688 57.652344 0.277344 C 58.242188 -1.003906 59.265625 -2.023438 60.546875 -2.609375 C 60.777344 -2.71875 60.671875 -3.070312 60.410156 -3.019531 C 60.394531 -3.015625 60.382812 -3.011719 60.367188 -3.003906 C 58.984375 -2.367188 57.894531 -1.289062 57.261719 0.0976562 Z M 62.53125 -3.554688 C 62.292969 -3.539062 62.25 -3.195312 62.492188 -3.128906 C 62.515625 -3.121094 62.535156 -3.121094 62.558594 -3.121094 L 62.582031 -3.125 L 62.617188 -3.125 L 62.65625 -3.128906 L 62.691406 -3.128906 L 62.726562 -3.132812 L 62.796875 -3.132812 L 62.835938 -3.136719 L 63.089844 -3.136719 L 63.125 -3.132812 L 63.199219 -3.132812 L 63.234375 -3.128906 L 63.269531 -3.128906 L 63.308594 -3.125 L 63.34375 -3.125 L 63.378906 -3.121094 L 63.417969 -3.117188 L 63.453125 -3.117188 L 63.488281 -3.113281 L 63.527344 -3.109375 L 63.5625 -3.105469 L 63.601562 -3.101562 L 63.671875 -3.09375 L 63.710938 -3.089844 L 63.746094 -3.082031 L 63.785156 -3.078125 L 63.820312 -3.074219 L 63.859375 -3.066406 L 63.894531 -3.0625 L 63.929688 -3.054688 L 63.96875 -3.050781 L 64.003906 -3.042969 L 64.042969 -3.035156 L 64.078125 -3.027344 L 64.117188 -3.019531 L 64.152344 -3.015625 L 64.191406 -3.007812 L 64.226562 -2.996094 L 64.261719 -2.988281 C 65.074219 -2.800781 65.8125 -2.464844 66.480469 -1.960938 C 66.667969 -1.820312 66.921875 -2.042969 66.792969 -2.253906 C 66.777344 -2.273438 66.761719 -2.292969 66.742188 -2.308594 C 66.027344 -2.84375 65.230469 -3.210938 64.359375 -3.410156 L 64.320312 -3.421875 L 64.242188 -3.4375 L 64.199219 -3.445312 L 64.042969 -3.476562 L 64.003906 -3.480469 L 63.925781 -3.496094 L 63.882812 -3.5 L 63.84375 -3.507812 L 63.765625 -3.515625 L 63.726562 -3.523438 L 63.492188 -3.546875 L 63.449219 -3.550781 L 63.410156 -3.554688 L 63.371094 -3.554688 L 63.292969 -3.5625 L 63.214844 -3.5625 L 63.175781 -3.566406 L 63.097656 -3.566406 L 63.058594 -3.570312 L 62.863281 -3.570312 L 62.828125 -3.566406 L 62.75 -3.566406 L 62.710938 -3.5625 L 62.632812 -3.5625 L 62.554688 -3.554688 Z M 68.253906 -0.667969 C 68.128906 -0.867188 67.820312 -0.75 67.859375 -0.515625 C 67.863281 -0.484375 67.875 -0.460938 67.890625 -0.4375 C 67.902344 -0.417969 67.914062 -0.394531 67.929688 -0.375 C 68.660156 0.808594 68.945312 2.179688 68.742188 3.558594 C 68.722656 3.703125 68.847656 3.828125 68.992188 3.804688 C 69.085938 3.792969 69.15625 3.71875 69.171875 3.625 C 69.34375 2.515625 69.195312 1.371094 68.773438 0.332031 C 68.628906 -0.0195312 68.460938 -0.347656 68.253906 -0.667969 Z M 68.457031 5.738281 C 68.566406 5.539062 68.335938 5.328125 68.144531 5.457031 C 68.117188 5.476562 68.09375 5.5 68.078125 5.527344 C 67.398438 6.765625 66.296875 7.695312 64.976562 8.1875 C 64.753906 8.265625 64.796875 8.597656 65.046875 8.609375 C 65.074219 8.609375 65.097656 8.605469 65.121094 8.59375 C 65.363281 8.507812 65.589844 8.40625 65.816406 8.292969 C 66.929688 7.71875 67.855469 6.835938 68.457031 5.738281 Z M 62.925781 8.976562 C 63.117188 8.976562 63.214844 8.75 63.082031 8.609375 C 63.039062 8.566406 62.992188 8.546875 62.929688 8.542969 L 62.808594 8.542969 L 62.773438 8.539062 L 62.699219 8.539062 L 62.664062 8.535156 L 62.628906 8.535156 L 62.589844 8.53125 L 62.554688 8.53125 L 62.519531 8.527344 L 62.480469 8.523438 L 62.445312 8.519531 L 62.40625 8.515625 L 62.335938 8.507812 L 62.296875 8.503906 L 62.261719 8.5 L 62.222656 8.496094 L 62.1875 8.492188 L 62.152344 8.484375 L 62.113281 8.480469 L 62.078125 8.476562 L 62.039062 8.46875 L 62.003906 8.464844 L 61.964844 8.457031 L 61.929688 8.449219 L 61.890625 8.445312 L 61.820312 8.429688 L 61.78125 8.421875 L 61.746094 8.414062 L 61.707031 8.40625 L 61.671875 8.398438 C 60.710938 8.175781 59.847656 7.738281 59.109375 7.089844 C 58.914062 6.917969 58.640625 7.167969 58.789062 7.378906 C 58.800781 7.390625 58.808594 7.402344 58.820312 7.410156 C 59.484375 8.003906 60.292969 8.445312 61.148438 8.707031 C 61.289062 8.75 61.429688 8.785156 61.574219 8.820312 L 61.613281 8.828125 L 61.65625 8.835938 L 61.695312 8.84375 L 61.734375 8.855469 L 61.773438 8.863281 L 61.8125 8.867188 L 61.96875 8.898438 L 62.011719 8.902344 L 62.050781 8.910156 L 62.089844 8.914062 L 62.128906 8.921875 L 62.207031 8.929688 L 62.246094 8.9375 L 62.289062 8.941406 L 62.445312 8.957031 L 62.484375 8.957031 L 62.5625 8.964844 L 62.601562 8.964844 L 62.679688 8.972656 L 62.757812 8.972656 L 62.796875 8.976562 Z M 62.925781 8.976562 " fill-opacity="1" fill-rule="nonzero"/></g></g></g><g clip-path="url(#21b08fa394)"><g clip-path="url(#83d8ed22a8)"><g clip-path="url(#6a5b7e9ef0)"><path fill="#ffffff" d="M 63.179688 2.667969 L 68.542969 36.101562 L 68.5625 36.210938 L 68.488281 36.289062 L 38.054688 67.511719 L 37.746094 67.210938 L 68.101562 36.0625 L 62.753906 2.738281 Z M 63.179688 2.667969 " fill-opacity="1" fill-rule="nonzero"/></g></g></g><g clip-path="url(#b520b21234)"><g clip-path="url(#fcaf911afa)"><g clip-path="url(#b08bebae3e)"><path fill="#ffffff" d="M 61.964844 2.867188 C 62.054688 3.417969 62.574219 3.796875 63.128906 3.707031 C 63.683594 3.617188 64.058594 3.097656 63.96875 2.542969 C 63.878906 1.988281 63.359375 1.613281 62.804688 1.703125 C 62.25 1.792969 61.875 2.3125 61.964844 2.867188 Z M 36.898438 67.523438 C 36.988281 68.078125 37.507812 68.453125 38.0625 68.363281 C 38.617188 68.277344 38.992188 67.753906 38.902344 67.203125 C 38.8125 66.648438 38.292969 66.269531 37.738281 66.359375 C 37.1875 66.449219 36.808594 66.96875 36.898438 67.523438 Z M 67.328125 36.296875 C 67.417969 36.851562 67.941406 37.226562 68.492188 37.140625 C 69.046875 37.050781 69.421875 36.527344 69.335938 35.976562 C 69.246094 35.421875 68.722656 35.046875 68.171875 35.132812 C 67.617188 35.222656 67.242188 35.746094 67.328125 36.296875 Z M 67.328125 36.296875 " fill-opacity="1" fill-rule="evenodd"/></g></g></g><g clip-path="url(#2f2e5fe884)"><g clip-path="url(#3b0fcf640c)"><g clip-path="url(#a8b43f451d)"><path fill="#ffffff" d="M 18.171875 1.457031 C 18.121094 1.222656 18.433594 1.089844 18.566406 1.292969 C 18.582031 1.3125 18.589844 1.335938 18.59375 1.363281 C 18.742188 2.027344 18.78125 2.679688 18.714844 3.359375 C 18.628906 4.183594 18.386719 4.980469 17.992188 5.710938 C 17.878906 5.914062 17.570312 5.824219 17.585938 5.589844 C 17.589844 5.558594 17.59375 5.53125 17.609375 5.503906 C 18.285156 4.261719 18.476562 2.835938 18.171875 1.457031 Z M 18.191406 0.144531 C 18.285156 0.359375 18.019531 0.554688 17.84375 0.390625 C 17.824219 0.371094 17.808594 0.351562 17.796875 0.324219 C 17.214844 -0.960938 16.195312 -1.984375 14.917969 -2.578125 C 14.6875 -2.683594 14.792969 -3.035156 15.054688 -2.984375 C 15.070312 -2.980469 15.082031 -2.976562 15.097656 -2.96875 C 16.476562 -2.328125 17.5625 -1.246094 18.191406 0.144531 Z M 12.9375 -3.527344 C 13.175781 -3.511719 13.214844 -3.171875 12.972656 -3.101562 C 12.949219 -3.097656 12.929688 -3.09375 12.90625 -3.097656 L 12.882812 -3.097656 L 12.847656 -3.101562 L 12.808594 -3.101562 L 12.773438 -3.105469 L 12.738281 -3.105469 L 12.703125 -3.109375 L 12.628906 -3.109375 L 12.59375 -3.113281 L 12.375 -3.113281 L 12.339844 -3.109375 L 12.230469 -3.109375 L 12.195312 -3.105469 L 12.15625 -3.105469 L 12.121094 -3.101562 L 12.085938 -3.101562 L 12.046875 -3.097656 L 11.976562 -3.089844 L 11.9375 -3.089844 L 11.902344 -3.085938 L 11.863281 -3.082031 L 11.828125 -3.078125 L 11.792969 -3.070312 L 11.753906 -3.066406 L 11.71875 -3.0625 L 11.679688 -3.058594 L 11.644531 -3.050781 L 11.605469 -3.046875 L 11.570312 -3.042969 L 11.53125 -3.035156 L 11.496094 -3.03125 L 11.460938 -3.023438 L 11.421875 -3.015625 L 11.386719 -3.011719 L 11.347656 -3.003906 L 11.3125 -2.996094 L 11.273438 -2.988281 L 11.238281 -2.980469 L 11.199219 -2.972656 C 10.386719 -2.789062 9.648438 -2.453125 8.980469 -1.953125 C 8.789062 -1.8125 8.539062 -2.035156 8.667969 -2.246094 C 8.683594 -2.265625 8.699219 -2.285156 8.71875 -2.300781 C 9.4375 -2.832031 10.234375 -3.195312 11.105469 -3.394531 L 11.144531 -3.402344 L 11.1875 -3.410156 L 11.421875 -3.457031 L 11.464844 -3.464844 L 11.503906 -3.46875 L 11.542969 -3.476562 L 11.582031 -3.480469 L 11.621094 -3.488281 L 11.738281 -3.5 L 11.777344 -3.507812 L 11.820312 -3.511719 L 11.976562 -3.527344 L 12.015625 -3.527344 L 12.09375 -3.535156 L 12.132812 -3.535156 L 12.171875 -3.539062 L 12.210938 -3.539062 L 12.25 -3.542969 L 12.367188 -3.542969 L 12.40625 -3.546875 L 12.601562 -3.546875 L 12.640625 -3.542969 L 12.71875 -3.542969 L 12.757812 -3.539062 L 12.792969 -3.539062 L 12.832031 -3.535156 L 12.871094 -3.535156 L 12.910156 -3.53125 Z M 7.199219 -0.667969 C 7.324219 -0.863281 7.632812 -0.746094 7.59375 -0.511719 C 7.589844 -0.484375 7.578125 -0.457031 7.5625 -0.433594 C 7.550781 -0.414062 7.539062 -0.394531 7.527344 -0.371094 C 6.789062 0.808594 6.496094 2.175781 6.695312 3.558594 C 6.714844 3.703125 6.589844 3.828125 6.445312 3.804688 C 6.351562 3.789062 6.277344 3.714844 6.265625 3.625 C 6.097656 2.515625 6.25 1.367188 6.675781 0.332031 C 6.824219 -0.0195312 6.992188 -0.34375 7.199219 -0.667969 Z M 6.96875 5.738281 C 6.863281 5.539062 7.09375 5.328125 7.285156 5.457031 C 7.3125 5.476562 7.335938 5.5 7.351562 5.53125 C 8.023438 6.769531 9.125 7.707031 10.441406 8.203125 C 10.664062 8.28125 10.621094 8.613281 10.367188 8.625 C 10.34375 8.621094 10.320312 8.617188 10.292969 8.609375 C 10.054688 8.519531 9.828125 8.421875 9.601562 8.304688 C 8.488281 7.726562 7.570312 6.839844 6.96875 5.738281 Z M 12.492188 9 C 12.296875 9 12.199219 8.773438 12.335938 8.632812 C 12.378906 8.589844 12.425781 8.570312 12.488281 8.566406 L 12.644531 8.566406 L 12.679688 8.5625 L 12.753906 8.5625 L 12.789062 8.558594 L 12.828125 8.554688 L 12.863281 8.554688 L 12.898438 8.550781 L 12.9375 8.550781 L 13.007812 8.542969 L 13.046875 8.539062 L 13.082031 8.535156 L 13.121094 8.53125 L 13.191406 8.523438 L 13.230469 8.515625 L 13.265625 8.511719 L 13.304688 8.507812 L 13.339844 8.5 L 13.378906 8.496094 L 13.414062 8.492188 L 13.449219 8.484375 L 13.488281 8.476562 L 13.523438 8.472656 L 13.5625 8.464844 L 13.597656 8.457031 L 13.636719 8.449219 L 13.671875 8.441406 L 13.710938 8.433594 L 13.746094 8.425781 C 14.707031 8.210938 15.574219 7.773438 16.316406 7.128906 C 16.511719 6.960938 16.785156 7.210938 16.632812 7.421875 C 16.621094 7.433594 16.613281 7.441406 16.601562 7.453125 C 15.933594 8.042969 15.121094 8.480469 14.269531 8.738281 C 14.128906 8.78125 13.984375 8.816406 13.839844 8.847656 L 13.800781 8.859375 L 13.683594 8.882812 L 13.640625 8.890625 L 13.5625 8.90625 L 13.523438 8.910156 L 13.445312 8.925781 L 13.40625 8.929688 L 13.367188 8.9375 L 13.328125 8.941406 L 13.285156 8.945312 L 13.246094 8.953125 L 12.933594 8.984375 L 12.890625 8.988281 L 12.851562 8.988281 L 12.8125 8.992188 L 12.773438 8.992188 L 12.734375 8.996094 L 12.695312 8.996094 L 12.65625 9 Z M 12.492188 9 " fill-opacity="1" fill-rule="nonzero"/></g></g></g><g clip-path="url(#08065a6731)"><g clip-path="url(#97b14567f3)"><g clip-path="url(#957552cba8)"><path fill="#ffffff" d="M 12.261719 2.691406 L 6.757812 36.101562 L 6.742188 36.210938 L 6.816406 36.289062 L 37.121094 67.636719 L 37.429688 67.339844 L 7.203125 36.066406 L 12.6875 2.761719 Z M 12.261719 2.691406 " fill-opacity="1" fill-rule="nonzero"/></g></g></g><g clip-path="url(#37844aafa9)"><g clip-path="url(#8fe2fb4478)"><g clip-path="url(#98440ffa2a)"><path fill="#ffffff" d="M 13.476562 2.894531 C 13.382812 3.445312 12.859375 3.820312 12.308594 3.730469 C 11.753906 3.636719 11.378906 3.117188 11.472656 2.5625 C 11.5625 2.007812 12.085938 1.636719 12.640625 1.726562 C 13.191406 1.816406 13.566406 2.339844 13.476562 2.894531 Z M 38.277344 67.652344 C 38.183594 68.207031 37.660156 68.582031 37.109375 68.488281 C 36.554688 68.398438 36.179688 67.875 36.273438 67.324219 C 36.363281 66.769531 36.886719 66.394531 37.441406 66.488281 C 37.992188 66.578125 38.367188 67.101562 38.277344 67.652344 Z M 7.972656 36.304688 C 7.882812 36.855469 7.359375 37.230469 6.804688 37.140625 C 6.253906 37.046875 5.878906 36.523438 5.96875 35.972656 C 6.0625 35.417969 6.585938 35.046875 7.136719 35.136719 C 7.691406 35.226562 8.066406 35.75 7.972656 36.304688 Z M 7.972656 36.304688 " fill-opacity="1" fill-rule="evenodd"/></g></g></g></svg>