<svg xmlns="http://www.w3.org/2000/svg" xmlns:xlink="http://www.w3.org/1999/xlink" width="100" zoomAndPan="magnify" viewBox="0 0 75 74.999997" height="100" preserveAspectRatio="xMidYMid meet" version="1.0"><defs><clipPath id="0a20d46968"><path d="M 41 10 L 75 10 L 75 72.234375 L 41 72.234375 Z M 41 10 " clip-rule="nonzero"/></clipPath><clipPath id="449c682d67"><path d="M 0.695312 17 L 34 17 L 34 66 L 0.695312 66 Z M 0.695312 17 " clip-rule="nonzero"/></clipPath><clipPath id="ae1a5bb515"><path d="M 1 10 L 14 10 L 14 23 L 1 23 Z M 1 10 " clip-rule="nonzero"/></clipPath><clipPath id="f57d68a0cf"><path d="M 0.695312 11.414062 L 63.035156 2.3125 L 68.777344 41.648438 L 6.4375 50.746094 Z M 0.695312 11.414062 " clip-rule="nonzero"/></clipPath><clipPath id="49c6c731e3"><path d="M 0.695312 11.414062 L 63.035156 2.3125 L 68.777344 41.648438 L 6.4375 50.746094 Z M 0.695312 11.414062 " clip-rule="nonzero"/></clipPath><clipPath id="67cc8e6591"><path d="M 7 11 L 68 11 L 68 42 L 7 42 Z M 7 11 " clip-rule="nonzero"/></clipPath><clipPath id="173a0192a8"><path d="M 0.695312 11.414062 L 63.035156 2.3125 L 68.777344 41.648438 L 6.4375 50.746094 Z M 0.695312 11.414062 " clip-rule="nonzero"/></clipPath><clipPath id="3ee3fb7aa8"><path d="M 0.695312 11.414062 L 63.035156 2.3125 L 68.777344 41.648438 L 6.4375 50.746094 Z M 0.695312 11.414062 " clip-rule="nonzero"/></clipPath><clipPath id="73c2c5d9ef"><path d="M 6 10 L 69 10 L 69 42 L 6 42 Z M 6 10 " clip-rule="nonzero"/></clipPath><clipPath id="685f1e7960"><path d="M 0.695312 11.414062 L 63.035156 2.3125 L 68.777344 41.648438 L 6.4375 50.746094 Z M 0.695312 11.414062 " clip-rule="nonzero"/></clipPath><clipPath id="c789472a07"><path d="M 0.695312 11.414062 L 63.035156 2.3125 L 68.777344 41.648438 L 6.4375 50.746094 Z M 0.695312 11.414062 " clip-rule="nonzero"/></clipPath></defs><path fill="#ffffff" d="M 66.277344 41.25 L 45.382812 62.144531 L 43.964844 62.144531 L 64.859375 41.25 L 43.964844 20.355469 L 45.382812 20.355469 L 62.445312 37.414062 Z M 66.277344 41.25 " fill-opacity="1" fill-rule="nonzero"/><path fill="#ffffff" d="M 21.4375 41.25 L 5.070312 57.613281 L 3.957031 57.613281 L 20.324219 41.25 L 17.324219 38.246094 L 3.957031 24.882812 L 5.070312 24.882812 Z M 21.4375 41.25 " fill-opacity="1" fill-rule="nonzero"/><g clip-path="url(#0a20d46968)"><path fill="#ffffff" d="M 75.695312 41.25 L 72.238281 37.789062 L 56.851562 22.402344 L 55.636719 22.402344 L 43.234375 10 L 41.113281 10 L 53.515625 22.402344 L 51.875 22.402344 L 67.261719 37.789062 L 70.71875 41.25 L 51.875 60.09375 L 53.515625 60.09375 L 41.113281 72.496094 L 43.234375 72.496094 L 55.636719 60.09375 L 56.851562 60.09375 Z M 75.695312 41.25 " fill-opacity="1" fill-rule="nonzero"/></g><path fill="#ffffff" d="M 56.324219 36.890625 L 36.925781 17.492188 L 28.210938 17.492188 L 51.964844 41.25 L 28.210938 65.003906 L 36.925781 65.003906 L 60.679688 41.25 Z M 36.546875 64.089844 L 30.414062 64.089844 L 53.257812 41.25 L 30.414062 18.40625 L 36.546875 18.40625 L 59.390625 41.25 Z M 36.546875 64.089844 " fill-opacity="1" fill-rule="nonzero"/><path fill="#ffffff" d="M 46.925781 41.25 L 42.566406 45.605469 L 23.171875 65.003906 L 14.453125 65.003906 L 38.207031 41.25 L 14.453125 17.492188 L 23.171875 17.492188 L 42.566406 36.890625 Z M 46.925781 41.25 " fill-opacity="1" fill-rule="nonzero"/><g clip-path="url(#449c682d67)"><path fill="#ffffff" d="M 28.808594 36.890625 L 9.414062 17.492188 L 0.695312 17.492188 L 24.453125 41.25 L 0.695312 65.003906 L 9.414062 65.003906 L 33.167969 41.25 Z M 9.035156 64.089844 L 2.902344 64.089844 L 25.742188 41.25 L 2.902344 18.40625 L 9.035156 18.40625 L 28.164062 37.535156 L 31.875 41.25 Z M 9.035156 64.089844 " fill-opacity="1" fill-rule="nonzero"/></g><g clip-path="url(#ae1a5bb515)"><g clip-path="url(#f57d68a0cf)"><g clip-path="url(#49c6c731e3)"><path fill="#ffffff" d="M 6.121094 21.808594 C 5.902344 21.753906 5.769531 22.046875 5.960938 22.175781 C 5.980469 22.1875 6 22.199219 6.023438 22.203125 C 6.648438 22.351562 7.261719 22.402344 7.898438 22.351562 C 8.675781 22.289062 9.429688 22.074219 10.121094 21.714844 C 10.316406 21.613281 10.234375 21.320312 10.015625 21.332031 C 9.988281 21.332031 9.960938 21.339844 9.933594 21.351562 C 8.753906 21.964844 7.414062 22.117188 6.121094 21.808594 Z M 4.886719 21.800781 C 5.085938 21.894531 5.277344 21.648438 5.125 21.480469 C 5.109375 21.460938 5.089844 21.445312 5.066406 21.433594 C 3.867188 20.867188 2.921875 19.890625 2.390625 18.675781 C 2.292969 18.457031 1.960938 18.554688 2.003906 18.800781 C 2.007812 18.8125 2.011719 18.824219 2.015625 18.839844 C 2.597656 20.148438 3.59375 21.1875 4.886719 21.800781 Z M 1.53125 16.800781 C 1.542969 17.023438 1.863281 17.070312 1.929688 16.84375 C 1.9375 16.820312 1.9375 16.800781 1.9375 16.777344 L 1.9375 16.757812 L 1.933594 16.722656 L 1.933594 16.6875 L 1.929688 16.65625 L 1.929688 16.316406 L 1.933594 16.28125 L 1.933594 16.210938 L 1.9375 16.179688 L 1.9375 16.144531 L 1.941406 16.109375 L 1.941406 16.074219 L 1.945312 16.042969 L 1.953125 15.972656 L 1.953125 15.9375 L 1.957031 15.902344 L 1.960938 15.871094 L 1.964844 15.835938 L 1.972656 15.800781 L 1.980469 15.730469 L 1.984375 15.699219 L 1.988281 15.664062 L 1.996094 15.628906 L 2 15.59375 L 2.007812 15.558594 L 2.011719 15.523438 L 2.019531 15.488281 L 2.023438 15.457031 L 2.054688 15.316406 L 2.058594 15.28125 L 2.070312 15.25 L 2.085938 15.179688 C 2.273438 14.417969 2.601562 13.730469 3.082031 13.109375 C 3.21875 12.933594 3.011719 12.695312 2.8125 12.8125 C 2.792969 12.824219 2.777344 12.839844 2.761719 12.859375 C 2.246094 13.523438 1.890625 14.265625 1.691406 15.082031 L 1.679688 15.121094 L 1.671875 15.15625 L 1.664062 15.195312 L 1.65625 15.230469 L 1.648438 15.269531 L 1.640625 15.304688 L 1.632812 15.34375 L 1.625 15.378906 L 1.617188 15.417969 L 1.613281 15.453125 L 1.605469 15.492188 L 1.597656 15.527344 L 1.59375 15.566406 L 1.585938 15.601562 L 1.582031 15.640625 L 1.578125 15.675781 L 1.570312 15.714844 L 1.5625 15.785156 L 1.558594 15.824219 L 1.554688 15.859375 L 1.550781 15.898438 L 1.546875 15.933594 L 1.542969 15.972656 L 1.539062 16.007812 L 1.539062 16.042969 L 1.535156 16.082031 L 1.53125 16.117188 L 1.53125 16.15625 L 1.527344 16.191406 L 1.527344 16.265625 L 1.523438 16.300781 L 1.523438 16.410156 L 1.519531 16.449219 L 1.519531 16.519531 L 1.523438 16.558594 L 1.523438 16.667969 L 1.527344 16.703125 L 1.527344 16.777344 Z M 4.320312 11.460938 C 4.132812 11.574219 4.238281 11.867188 4.460938 11.835938 C 4.488281 11.828125 4.511719 11.820312 4.535156 11.808594 C 4.554688 11.796875 4.574219 11.785156 4.589844 11.773438 C 5.714844 11.101562 7.003906 10.851562 8.300781 11.058594 C 8.4375 11.082031 8.558594 10.96875 8.535156 10.832031 C 8.523438 10.742188 8.457031 10.671875 8.371094 10.660156 C 7.332031 10.484375 6.25 10.605469 5.269531 10.988281 C 4.9375 11.117188 4.628906 11.273438 4.320312 11.460938 Z M 10.34375 11.359375 C 10.15625 11.253906 9.957031 11.46875 10.074219 11.648438 C 10.09375 11.675781 10.113281 11.695312 10.140625 11.710938 C 11.292969 12.367188 12.15625 13.417969 12.597656 14.664062 C 12.667969 14.871094 12.980469 14.839844 12.992188 14.601562 C 12.996094 14.578125 12.992188 14.554688 12.984375 14.53125 C 12.902344 14.308594 12.8125 14.09375 12.707031 13.875 C 12.183594 12.820312 11.367188 11.941406 10.34375 11.359375 Z M 13.3125 16.601562 C 13.3125 16.421875 13.101562 16.328125 12.96875 16.449219 C 12.925781 16.492188 12.90625 16.535156 12.90625 16.59375 L 12.902344 16.601562 L 12.902344 16.707031 L 12.898438 16.738281 L 12.898438 16.773438 L 12.894531 16.808594 L 12.894531 16.84375 L 12.890625 16.875 L 12.886719 16.910156 L 12.886719 16.945312 L 12.878906 17.015625 L 12.875 17.046875 L 12.859375 17.1875 L 12.855469 17.21875 L 12.847656 17.253906 L 12.839844 17.324219 L 12.832031 17.359375 L 12.828125 17.394531 L 12.820312 17.429688 L 12.816406 17.460938 L 12.800781 17.53125 L 12.796875 17.566406 L 12.78125 17.636719 L 12.773438 17.667969 L 12.75 17.773438 C 12.527344 18.671875 12.105469 19.476562 11.484375 20.164062 C 11.320312 20.34375 11.550781 20.605469 11.753906 20.464844 C 11.765625 20.457031 11.773438 20.449219 11.78125 20.4375 C 12.351562 19.820312 12.777344 19.066406 13.03125 18.269531 C 13.074219 18.136719 13.109375 18.003906 13.144531 17.871094 L 13.152344 17.832031 L 13.160156 17.796875 L 13.171875 17.757812 L 13.179688 17.722656 L 13.1875 17.683594 L 13.195312 17.648438 L 13.203125 17.609375 L 13.207031 17.574219 L 13.214844 17.535156 L 13.222656 17.5 L 13.230469 17.460938 L 13.234375 17.425781 L 13.242188 17.386719 L 13.246094 17.351562 L 13.25 17.3125 L 13.257812 17.277344 L 13.261719 17.238281 L 13.265625 17.203125 L 13.273438 17.164062 L 13.277344 17.128906 L 13.28125 17.089844 L 13.289062 17.019531 L 13.289062 16.980469 L 13.292969 16.945312 L 13.296875 16.90625 L 13.300781 16.871094 L 13.300781 16.832031 L 13.304688 16.796875 L 13.304688 16.761719 L 13.308594 16.722656 L 13.308594 16.648438 L 13.3125 16.613281 Z M 13.3125 16.601562 " fill-opacity="1" fill-rule="nonzero"/></g></g></g><g clip-path="url(#67cc8e6591)"><g clip-path="url(#173a0192a8)"><g clip-path="url(#3ee3fb7aa8)"><path fill="#ffffff" d="M 7.386719 16.277344 L 38.878906 11.699219 L 38.980469 11.6875 L 39.050781 11.757812 L 67.96875 40.785156 L 67.683594 41.074219 L 38.835938 12.117188 L 7.445312 16.675781 Z M 7.386719 16.277344 " fill-opacity="1" fill-rule="nonzero"/></g></g></g><g clip-path="url(#73c2c5d9ef)"><g clip-path="url(#685f1e7960)"><g clip-path="url(#c789472a07)"><path fill="#ffffff" d="M 7.554688 17.421875 C 8.078125 17.34375 8.4375 16.859375 8.359375 16.339844 C 8.285156 15.816406 7.800781 15.457031 7.277344 15.53125 C 6.757812 15.609375 6.398438 16.09375 6.472656 16.613281 C 6.550781 17.136719 7.035156 17.496094 7.554688 17.421875 Z M 67.964844 41.871094 C 68.484375 41.796875 68.84375 41.3125 68.769531 40.792969 C 68.691406 40.269531 68.210938 39.910156 67.6875 39.984375 C 67.167969 40.0625 66.804688 40.546875 66.882812 41.066406 C 66.957031 41.589844 67.441406 41.949219 67.964844 41.871094 Z M 39.046875 12.84375 C 39.566406 12.769531 39.925781 12.285156 39.851562 11.761719 C 39.773438 11.242188 39.289062 10.878906 38.769531 10.957031 C 38.246094 11.03125 37.886719 11.515625 37.964844 12.039062 C 38.039062 12.558594 38.523438 12.921875 39.046875 12.84375 Z M 39.046875 12.84375 " fill-opacity="1" fill-rule="evenodd"/></g></g></g></svg>