<svg xmlns="http://www.w3.org/2000/svg" xmlns:xlink="http://www.w3.org/1999/xlink" width="100" zoomAndPan="magnify" viewBox="0 0 75 74.999997" height="100" preserveAspectRatio="xMidYMid meet" version="1.0"><defs><clipPath id="c3b218e1fd"><path d="M 0.695312 10 L 36 10 L 36 72.234375 L 0.695312 72.234375 Z M 0.695312 10 " clip-rule="nonzero"/></clipPath><clipPath id="a63e653f0f"><path d="M 63 10 L 75 10 L 75 22 L 63 22 Z M 63 10 " clip-rule="nonzero"/></clipPath><clipPath id="b3fd7ab888"><path d="M 13.171875 2.128906 L 75.550781 10.929688 L 70 50.292969 L 7.617188 41.488281 Z M 13.171875 2.128906 " clip-rule="nonzero"/></clipPath><clipPath id="7789d70404"><path d="M 75.691406 10.953125 L 13.308594 2.148438 L 7.757812 41.507812 L 70.136719 50.3125 Z M 75.691406 10.953125 " clip-rule="nonzero"/></clipPath><clipPath id="3123d71274"><path d="M 8 11 L 70 11 L 70 41 L 8 41 Z M 8 11 " clip-rule="nonzero"/></clipPath><clipPath id="c613fc640a"><path d="M 13.171875 2.128906 L 75.550781 10.929688 L 70 50.292969 L 7.617188 41.488281 Z M 13.171875 2.128906 " clip-rule="nonzero"/></clipPath><clipPath id="613ec52507"><path d="M 75.691406 10.953125 L 13.308594 2.148438 L 7.757812 41.507812 L 70.136719 50.3125 Z M 75.691406 10.953125 " clip-rule="nonzero"/></clipPath><clipPath id="32aa3f6faf"><path d="M 7 10 L 70 10 L 70 42 L 7 42 Z M 7 10 " clip-rule="nonzero"/></clipPath><clipPath id="5d956e6c6f"><path d="M 13.171875 2.128906 L 75.550781 10.929688 L 70 50.292969 L 7.617188 41.488281 Z M 13.171875 2.128906 " clip-rule="nonzero"/></clipPath><clipPath id="46f25acc00"><path d="M 75.691406 10.953125 L 13.308594 2.148438 L 7.757812 41.507812 L 70.136719 50.3125 Z M 75.691406 10.953125 " clip-rule="nonzero"/></clipPath></defs><path fill="#ffffff" d="M 10.117188 41.25 L 31.011719 62.144531 L 32.429688 62.144531 L 11.535156 41.25 L 15.367188 37.414062 L 32.429688 20.355469 L 31.011719 20.355469 L 13.949219 37.414062 Z M 10.117188 41.25 " fill-opacity="1" fill-rule="nonzero"/><path fill="#ffffff" d="M 54.957031 41.25 L 71.324219 57.613281 L 72.433594 57.613281 L 56.066406 41.25 L 72.433594 24.882812 L 71.324219 24.882812 L 57.957031 38.246094 Z M 54.957031 41.25 " fill-opacity="1" fill-rule="nonzero"/><g clip-path="url(#c3b218e1fd)"><path fill="#ffffff" d="M 0.695312 41.25 L 4.152344 37.789062 L 19.542969 22.402344 L 20.757812 22.402344 L 33.160156 10 L 35.28125 10 L 22.878906 22.402344 L 24.519531 22.402344 L 9.128906 37.789062 L 5.671875 41.25 L 24.519531 60.09375 L 22.878906 60.09375 L 35.28125 72.496094 L 33.160156 72.496094 L 20.757812 60.09375 L 19.542969 60.09375 Z M 0.695312 41.25 " fill-opacity="1" fill-rule="nonzero"/></g><path fill="#ffffff" d="M 20.070312 36.890625 L 39.464844 17.492188 L 48.183594 17.492188 L 24.425781 41.25 L 48.183594 65.003906 L 39.464844 65.003906 L 15.710938 41.25 Z M 39.84375 64.089844 L 45.976562 64.089844 L 23.136719 41.25 L 45.976562 18.40625 L 39.84375 18.40625 L 20.714844 37.535156 L 17.003906 41.25 Z M 39.84375 64.089844 " fill-opacity="1" fill-rule="nonzero"/><path fill="#ffffff" d="M 29.46875 41.25 L 33.828125 45.605469 L 53.222656 65.003906 L 61.941406 65.003906 L 38.183594 41.25 L 61.941406 17.492188 L 53.222656 17.492188 L 33.828125 36.890625 Z M 29.46875 41.25 " fill-opacity="1" fill-rule="nonzero"/><path fill="#ffffff" d="M 47.585938 36.890625 L 66.980469 17.492188 L 75.695312 17.492188 L 51.941406 41.25 L 75.695312 65.003906 L 66.980469 65.003906 L 43.226562 41.25 Z M 67.359375 64.089844 L 73.492188 64.089844 L 50.652344 41.25 L 73.492188 18.40625 L 67.359375 18.40625 L 48.230469 37.535156 L 44.519531 41.25 Z M 67.359375 64.089844 " fill-opacity="1" fill-rule="nonzero"/><g clip-path="url(#a63e653f0f)"><g clip-path="url(#b3fd7ab888)"><g clip-path="url(#7789d70404)"><path fill="#ffffff" d="M 70.316406 21.371094 C 70.535156 21.316406 70.667969 21.609375 70.480469 21.738281 C 70.460938 21.75 70.4375 21.761719 70.414062 21.765625 C 69.792969 21.917969 69.179688 21.972656 68.542969 21.925781 C 67.765625 21.863281 67.011719 21.652344 66.316406 21.296875 C 66.121094 21.195312 66.203125 20.902344 66.417969 20.910156 C 66.449219 20.914062 66.476562 20.917969 66.5 20.933594 C 67.683594 21.539062 69.027344 21.6875 70.316406 21.371094 Z M 71.550781 21.359375 C 71.351562 21.453125 71.160156 21.210938 71.308594 21.039062 C 71.328125 21.019531 71.347656 21.003906 71.371094 20.992188 C 72.566406 20.417969 73.507812 19.4375 74.035156 18.222656 C 74.128906 18.003906 74.460938 18.097656 74.421875 18.34375 C 74.417969 18.355469 74.414062 18.371094 74.40625 18.382812 C 73.832031 19.695312 72.839844 20.738281 71.550781 21.359375 Z M 74.882812 16.339844 C 74.875 16.566406 74.554688 16.613281 74.484375 16.382812 C 74.480469 16.363281 74.476562 16.34375 74.476562 16.320312 L 74.480469 16.300781 L 74.480469 16.230469 L 74.484375 16.199219 L 74.484375 15.890625 L 74.480469 15.859375 L 74.480469 15.824219 L 74.476562 15.789062 L 74.476562 15.722656 L 74.46875 15.652344 L 74.46875 15.617188 L 74.464844 15.585938 L 74.457031 15.515625 L 74.457031 15.480469 L 74.453125 15.449219 L 74.445312 15.378906 L 74.4375 15.34375 L 74.429688 15.273438 L 74.425781 15.242188 L 74.417969 15.207031 L 74.414062 15.171875 L 74.40625 15.136719 L 74.402344 15.101562 L 74.394531 15.066406 L 74.390625 15.035156 L 74.375 14.964844 L 74.371094 14.929688 L 74.347656 14.824219 L 74.339844 14.792969 L 74.332031 14.757812 L 74.320312 14.722656 C 74.132812 13.964844 73.796875 13.273438 73.316406 12.660156 C 73.179688 12.484375 73.382812 12.242188 73.582031 12.359375 C 73.605469 12.371094 73.621094 12.386719 73.636719 12.40625 C 74.152344 13.070312 74.511719 13.808594 74.714844 14.625 L 74.726562 14.660156 L 74.734375 14.699219 L 74.742188 14.734375 L 74.75 14.773438 L 74.757812 14.808594 L 74.765625 14.847656 L 74.773438 14.882812 L 74.78125 14.921875 L 74.789062 14.957031 L 74.796875 14.996094 L 74.804688 15.03125 L 74.808594 15.070312 L 74.816406 15.105469 L 74.820312 15.144531 L 74.828125 15.179688 L 74.832031 15.21875 L 74.835938 15.253906 L 74.84375 15.292969 L 74.851562 15.363281 L 74.855469 15.402344 L 74.859375 15.4375 L 74.863281 15.476562 L 74.867188 15.511719 L 74.871094 15.550781 L 74.875 15.585938 L 74.875 15.621094 L 74.878906 15.660156 L 74.882812 15.695312 L 74.882812 15.734375 L 74.886719 15.769531 L 74.886719 15.84375 L 74.890625 15.878906 L 74.890625 16.207031 L 74.886719 16.246094 L 74.886719 16.316406 Z M 72.066406 11.015625 C 72.253906 11.128906 72.152344 11.421875 71.929688 11.390625 C 71.902344 11.386719 71.878906 11.375 71.855469 11.363281 C 71.835938 11.351562 71.816406 11.339844 71.796875 11.328125 C 70.671875 10.660156 69.378906 10.417969 68.089844 10.632812 L 68.085938 10.632812 C 67.949219 10.65625 67.828125 10.542969 67.847656 10.40625 C 67.863281 10.316406 67.929688 10.246094 68.015625 10.234375 C 69.054688 10.050781 70.132812 10.167969 71.117188 10.546875 C 71.449219 10.675781 71.761719 10.828125 72.066406 11.015625 Z M 66.042969 10.941406 C 66.230469 10.835938 66.433594 11.050781 66.316406 11.230469 C 66.296875 11.257812 66.277344 11.277344 66.25 11.292969 C 65.101562 11.957031 64.242188 13.007812 63.808594 14.257812 L 63.804688 14.257812 C 63.738281 14.46875 63.421875 14.433594 63.410156 14.199219 C 63.410156 14.175781 63.414062 14.152344 63.421875 14.128906 C 63.5 13.902344 63.589844 13.6875 63.691406 13.46875 C 64.210938 12.414062 65.023438 11.53125 66.042969 10.941406 Z M 63.101562 16.199219 C 63.101562 16.019531 63.308594 15.921875 63.445312 16.046875 C 63.484375 16.085938 63.507812 16.128906 63.507812 16.1875 L 63.507812 16.199219 L 63.511719 16.234375 L 63.511719 16.265625 L 63.515625 16.300781 L 63.515625 16.371094 L 63.519531 16.402344 L 63.523438 16.4375 L 63.523438 16.472656 L 63.527344 16.507812 L 63.53125 16.539062 L 63.535156 16.574219 L 63.535156 16.609375 L 63.539062 16.644531 L 63.546875 16.679688 L 63.550781 16.710938 L 63.566406 16.851562 L 63.574219 16.882812 L 63.578125 16.917969 L 63.585938 16.953125 L 63.589844 16.988281 L 63.597656 17.023438 L 63.601562 17.058594 L 63.609375 17.09375 L 63.617188 17.125 L 63.621094 17.160156 L 63.652344 17.300781 L 63.660156 17.332031 L 63.671875 17.367188 C 63.894531 18.265625 64.324219 19.070312 64.949219 19.75 C 65.109375 19.933594 64.882812 20.195312 64.679688 20.054688 C 64.667969 20.046875 64.660156 20.039062 64.648438 20.027344 C 64.078125 19.414062 63.648438 18.660156 63.390625 17.867188 C 63.347656 17.734375 63.308594 17.601562 63.277344 17.464844 L 63.265625 17.429688 L 63.257812 17.390625 L 63.25 17.355469 L 63.242188 17.316406 L 63.234375 17.28125 L 63.226562 17.242188 L 63.210938 17.171875 L 63.203125 17.132812 L 63.195312 17.097656 L 63.1875 17.058594 L 63.183594 17.023438 L 63.175781 16.984375 L 63.171875 16.949219 L 63.164062 16.910156 L 63.160156 16.875 L 63.152344 16.835938 L 63.148438 16.800781 L 63.144531 16.761719 L 63.140625 16.726562 L 63.136719 16.6875 L 63.132812 16.652344 L 63.128906 16.613281 L 63.125 16.578125 L 63.121094 16.539062 L 63.117188 16.503906 L 63.117188 16.46875 L 63.113281 16.429688 L 63.109375 16.394531 L 63.109375 16.359375 L 63.105469 16.320312 L 63.105469 16.246094 L 63.101562 16.210938 Z M 63.101562 16.199219 " fill-opacity="1" fill-rule="nonzero"/></g></g></g><g clip-path="url(#3123d71274)"><g clip-path="url(#c613fc640a)"><g clip-path="url(#613ec52507)"><path fill="#ffffff" d="M 69.023438 15.84375 L 37.511719 11.417969 L 37.410156 11.40625 L 37.339844 11.476562 L 8.5625 40.644531 L 8.851562 40.929688 L 37.558594 11.835938 L 68.96875 16.246094 Z M 69.023438 15.84375 " fill-opacity="1" fill-rule="nonzero"/></g></g></g><g clip-path="url(#32aa3f6faf)"><g clip-path="url(#5d956e6c6f)"><g clip-path="url(#46f25acc00)"><path fill="#ffffff" d="M 68.863281 16.988281 C 68.339844 16.917969 67.976562 16.433594 68.050781 15.910156 C 68.125 15.390625 68.605469 15.027344 69.128906 15.101562 C 69.652344 15.175781 70.015625 15.65625 69.941406 16.179688 C 69.867188 16.699219 69.382812 17.0625 68.863281 16.988281 Z M 8.570312 41.730469 C 8.050781 41.65625 7.6875 41.175781 7.761719 40.652344 C 7.835938 40.132812 8.316406 39.769531 8.839844 39.84375 C 9.359375 39.914062 9.722656 40.398438 9.648438 40.921875 C 9.578125 41.441406 9.09375 41.804688 8.570312 41.730469 Z M 37.351562 12.566406 C 36.828125 12.492188 36.464844 12.007812 36.539062 11.488281 C 36.613281 10.964844 37.097656 10.601562 37.617188 10.675781 C 38.140625 10.75 38.503906 11.230469 38.429688 11.753906 C 38.355469 12.273438 37.871094 12.636719 37.351562 12.566406 Z M 37.351562 12.566406 " fill-opacity="1" fill-rule="evenodd"/></g></g></g></svg>