<svg xmlns="http://www.w3.org/2000/svg" xmlns:xlink="http://www.w3.org/1999/xlink" width="100" zoomAndPan="magnify" viewBox="0 0 75 74.999997" height="100" preserveAspectRatio="xMidYMid meet" version="1.0"><defs><clipPath id="280ce38efd"><path d="M 18 0.925781 L 56 0.925781 L 56 74.425781 L 18 74.425781 Z M 18 0.925781 " clip-rule="nonzero"/></clipPath></defs><path fill="#4e7896" d="M 31.042969 39.90625 C 31.042969 39.90625 29.117188 41.085938 32.382812 41.421875 C 36.320312 41.925781 38.414062 41.84375 42.769531 41 C 42.769531 41 43.941406 41.757812 45.53125 42.347656 C 35.734375 46.558594 23.339844 42.09375 31.042969 39.90625 Z M 29.789062 34.433594 C 29.789062 34.433594 27.695312 36.035156 30.960938 36.371094 C 35.230469 36.792969 38.582031 36.875 44.359375 35.695312 C 44.359375 35.695312 45.113281 36.539062 46.371094 36.960938 C 34.5625 40.496094 21.328125 37.296875 29.789062 34.433594 Z M 52.902344 44.03125 C 52.902344 44.03125 54.328125 45.207031 51.3125 46.136719 C 45.699219 47.820312 27.777344 48.324219 22.753906 46.136719 C 20.996094 45.378906 24.34375 44.28125 25.433594 44.113281 C 26.523438 43.863281 27.109375 43.863281 27.109375 43.863281 C 25.183594 42.515625 14.292969 46.640625 21.582031 47.820312 C 41.597656 51.101562 58.09375 46.386719 52.902344 44.03125 Z M 31.964844 28.707031 C 31.964844 28.707031 22.835938 30.898438 28.699219 31.65625 C 31.210938 31.992188 36.152344 31.90625 40.757812 31.570312 C 44.527344 31.234375 48.296875 30.558594 48.296875 30.558594 C 48.296875 30.558594 46.957031 31.148438 46.035156 31.738281 C 36.738281 34.179688 18.902344 33.085938 24.011719 30.558594 C 28.363281 28.457031 31.964844 28.707031 31.964844 28.707031 Z M 48.296875 37.882812 C 57.675781 33.003906 53.320312 28.289062 50.308594 28.875 C 49.554688 29.046875 49.21875 29.214844 49.21875 29.214844 C 49.21875 29.214844 49.46875 28.707031 50.054688 28.539062 C 56 26.433594 60.691406 34.855469 48.128906 38.136719 C 48.128906 38.136719 48.214844 38.054688 48.296875 37.882812 Z M 32.886719 51.1875 C 41.933594 51.773438 55.75 50.847656 56.085938 46.554688 C 56.085938 46.554688 55.414062 48.238281 48.632812 49.503906 C 40.925781 50.933594 31.378906 50.765625 25.769531 49.839844 C 25.769531 49.839844 26.941406 50.847656 32.890625 51.1875 Z M 32.886719 51.1875 " fill-opacity="1" fill-rule="nonzero"/><g clip-path="url(#280ce38efd)"><path fill="#f58219" d="M 42.601562 0.925781 C 42.601562 0.925781 47.792969 6.230469 37.660156 14.230469 C 29.535156 20.710938 35.816406 24.414062 37.660156 28.625 C 32.886719 24.332031 29.453125 20.542969 31.796875 17.007812 C 35.230469 11.789062 44.695312 9.265625 42.601562 0.925781 Z M 39.921875 25.089844 C 42.351562 27.867188 39.253906 30.394531 39.253906 30.394531 C 39.253906 30.394531 45.449219 27.195312 42.601562 23.238281 C 40.007812 19.449219 37.996094 17.597656 48.882812 11.285156 C 48.882812 11.285156 31.714844 15.578125 39.921875 25.089844 Z M 33.722656 70.296875 L 33.722656 62.046875 C 33.722656 59.941406 32.550781 58.507812 29.621094 58.507812 C 27.945312 58.507812 26.523438 58.929688 25.265625 59.433594 L 25.683594 60.949219 C 26.605469 60.613281 27.777344 60.277344 29.035156 60.277344 C 30.625 60.277344 31.378906 60.949219 31.378906 62.296875 L 31.378906 63.390625 L 30.542969 63.390625 C 26.523438 63.390625 24.679688 64.90625 24.679688 67.347656 C 24.679688 69.367188 25.9375 70.546875 28.199219 70.546875 C 29.621094 70.546875 30.710938 69.871094 31.714844 69.03125 L 31.882812 70.292969 L 33.726562 70.292969 Z M 31.378906 67.601562 C 30.542969 68.359375 29.621094 68.78125 28.78125 68.78125 C 27.695312 68.78125 27.023438 68.105469 27.023438 66.929688 C 27.023438 65.75 27.695312 64.90625 30.375 64.90625 L 31.378906 64.90625 Z M 41.597656 70.296875 L 38.664062 70.296875 L 35.148438 58.761719 L 37.660156 58.761719 L 39.839844 65.832031 L 40.339844 67.9375 C 41.429688 64.90625 42.265625 61.792969 42.601562 58.761719 L 45.113281 58.761719 C 44.445312 62.550781 43.273438 66.675781 41.597656 70.296875 Z M 55.164062 70.296875 L 55.164062 62.046875 C 55.164062 59.941406 53.992188 58.507812 51.058594 58.507812 C 49.386719 58.507812 47.960938 58.929688 46.707031 59.433594 L 47.039062 60.949219 C 48.046875 60.613281 49.21875 60.277344 50.472656 60.277344 C 52.066406 60.277344 52.820312 60.949219 52.820312 62.296875 L 52.820312 63.390625 L 51.980469 63.390625 C 47.960938 63.390625 46.121094 64.90625 46.121094 67.347656 C 46.121094 69.367188 47.292969 70.546875 49.554688 70.546875 C 51.058594 70.546875 52.148438 69.871094 53.152344 69.03125 L 53.320312 70.292969 L 55.164062 70.292969 Z M 52.820312 67.601562 C 51.980469 68.359375 51.058594 68.78125 50.222656 68.78125 C 49.132812 68.78125 48.464844 68.105469 48.464844 66.929688 C 48.464844 65.75 49.132812 64.90625 51.8125 64.90625 L 52.820312 64.90625 Z M 22.085938 72.230469 C 21.414062 73.242188 20.410156 74 19.152344 74.421875 L 18.0625 73.074219 C 18.902344 72.570312 19.738281 71.8125 20.074219 71.136719 C 20.410156 70.546875 20.492188 69.707031 20.492188 67.769531 L 20.492188 54.636719 L 23.003906 54.636719 L 23.003906 67.601562 C 23.003906 70.210938 22.753906 71.222656 22.085938 72.234375 Z M 22.085938 72.230469 " fill-opacity="1" fill-rule="nonzero"/></g></svg>