<svg xmlns="http://www.w3.org/2000/svg" xmlns:xlink="http://www.w3.org/1999/xlink" width="100" zoomAndPan="magnify" viewBox="0 0 75 74.999997" height="100" preserveAspectRatio="xMidYMid meet" version="1.0"><defs><clipPath id="5f5243340a"><path d="M 0.550781 15.214844 L 74.800781 15.214844 L 74.800781 59.464844 L 0.550781 59.464844 Z M 0.550781 15.214844 " clip-rule="nonzero"/></clipPath></defs><g clip-path="url(#5f5243340a)"><path fill="#000000" d="M 18.078125 26.753906 L 32.078125 26.753906 L 32.078125 27.855469 L 19.359375 27.855469 L 19.359375 36.128906 L 31.320312 36.128906 L 31.320312 37.230469 L 19.359375 37.230469 L 19.359375 46.3125 L 32.222656 46.3125 L 32.222656 47.414062 L 18.078125 47.414062 Z M 33.332031 26.753906 L 34.816406 26.753906 L 41.410156 35.839844 L 48.144531 26.753906 L 57.308594 15.214844 L 42.253906 36.796875 L 50.011719 47.414062 L 48.464844 47.414062 L 41.410156 37.75 L 34.320312 47.414062 L 32.804688 47.414062 L 40.621094 36.796875 Z M 50.566406 27.855469 L 50.566406 26.753906 L 66.519531 26.753906 L 66.519531 27.855469 L 59.167969 27.855469 L 59.167969 47.414062 L 57.886719 47.414062 L 57.886719 27.855469 Z M 0.566406 26.753906 L 2.167969 26.753906 L 24.285156 59.460938 L 15.148438 47.414062 L 1.90625 28.316406 L 1.847656 47.414062 L 0.566406 47.414062 Z M 66.390625 45.984375 C 66.128906 45.984375 65.929688 45.78125 65.929688 45.523438 C 65.929688 45.261719 66.128906 45.0625 66.390625 45.0625 C 66.652344 45.0625 66.847656 45.261719 66.847656 45.523438 C 66.847656 45.78125 66.652344 45.984375 66.390625 45.984375 Z M 67.648438 44.769531 L 68.335938 44.769531 C 68.347656 45.140625 68.617188 45.386719 69.015625 45.386719 C 69.464844 45.386719 69.714844 45.121094 69.714844 44.625 L 69.714844 41.472656 L 70.414062 41.472656 L 70.414062 44.625 C 70.414062 45.523438 69.890625 46.039062 69.023438 46.039062 C 68.210938 46.039062 67.648438 45.539062 67.648438 44.769531 Z M 71.332031 44.730469 L 72.023438 44.730469 C 72.082031 45.15625 72.5 45.421875 73.101562 45.421875 C 73.664062 45.421875 74.074219 45.136719 74.074219 44.742188 C 74.074219 44.402344 73.8125 44.195312 73.21875 44.058594 L 72.636719 43.917969 C 71.824219 43.730469 71.453125 43.34375 71.453125 42.6875 C 71.453125 41.894531 72.109375 41.367188 73.089844 41.367188 C 74.003906 41.367188 74.671875 41.894531 74.710938 42.644531 L 74.03125 42.644531 C 73.96875 42.234375 73.605469 41.976562 73.082031 41.976562 C 72.527344 41.976562 72.160156 42.238281 72.160156 42.640625 C 72.160156 42.960938 72.398438 43.140625 72.984375 43.277344 L 73.480469 43.398438 C 74.402344 43.609375 74.785156 43.980469 74.785156 44.652344 C 74.785156 45.503906 74.117188 46.039062 73.050781 46.039062 C 72.050781 46.039062 71.378906 45.527344 71.332031 44.730469 Z M 71.332031 44.730469 " fill-opacity="1" fill-rule="nonzero"/></g></svg>