<svg xmlns="http://www.w3.org/2000/svg" xmlns:xlink="http://www.w3.org/1999/xlink" width="100" zoomAndPan="magnify" viewBox="0 0 75 74.999997" height="100" preserveAspectRatio="xMidYMid meet" version="1.0"><defs><clipPath id="08f9186105"><path d="M 62 34 L 74 34 L 74 47.484375 L 62 47.484375 Z M 62 34 " clip-rule="nonzero"/></clipPath><clipPath id="96e8530814"><path d="M 1 27.234375 L 59 27.234375 L 59 47.484375 L 1 47.484375 Z M 1 27.234375 " clip-rule="nonzero"/></clipPath><clipPath id="c78d282346"><path d="M 16 34 L 54 34 L 54 47.484375 L 16 47.484375 Z M 16 34 " clip-rule="nonzero"/></clipPath></defs><g clip-path="url(#08f9186105)"><path fill="#83cd29" d="M 68.089844 34.402344 C 67.914062 34.402344 67.742188 34.4375 67.589844 34.519531 L 62.769531 37.261719 C 62.457031 37.4375 62.269531 37.769531 62.269531 38.125 L 62.269531 43.59375 C 62.269531 43.949219 62.457031 44.28125 62.769531 44.460938 L 64.027344 45.171875 C 64.640625 45.46875 64.867188 45.464844 65.144531 45.464844 C 66.050781 45.464844 66.566406 44.925781 66.566406 43.984375 L 66.566406 38.589844 C 66.566406 38.515625 66.5 38.460938 66.421875 38.460938 L 65.820312 38.460938 C 65.742188 38.460938 65.675781 38.515625 65.675781 38.589844 L 65.675781 43.988281 C 65.675781 44.402344 65.234375 44.824219 64.519531 44.472656 L 63.210938 43.714844 C 63.164062 43.691406 63.128906 43.644531 63.128906 43.59375 L 63.128906 38.128906 C 63.128906 38.074219 63.164062 38.023438 63.210938 37.996094 L 68.019531 35.265625 C 68.066406 35.242188 68.121094 35.242188 68.164062 35.265625 L 72.972656 37.996094 C 73.019531 38.023438 73.054688 38.074219 73.054688 38.128906 L 73.054688 43.59375 C 73.054688 43.648438 73.027344 43.699219 72.984375 43.726562 L 68.164062 46.453125 C 68.121094 46.480469 68.0625 46.480469 68.019531 46.453125 L 66.78125 45.730469 C 66.746094 45.707031 66.695312 45.710938 66.660156 45.730469 C 66.316406 45.921875 66.253906 45.941406 65.933594 46.050781 C 65.855469 46.078125 65.734375 46.121094 65.972656 46.253906 L 67.589844 47.191406 C 67.746094 47.277344 67.917969 47.320312 68.09375 47.320312 C 68.269531 47.320312 68.441406 47.28125 68.59375 47.191406 L 73.414062 44.460938 C 73.726562 44.285156 73.914062 43.953125 73.914062 43.597656 L 73.914062 38.128906 C 73.914062 37.773438 73.726562 37.441406 73.414062 37.261719 L 68.59375 34.523438 C 68.441406 34.4375 68.269531 34.402344 68.09375 34.402344 Z M 69.378906 38.308594 C 68.007812 38.308594 67.191406 38.882812 67.191406 39.839844 C 67.191406 40.875 68 41.160156 69.320312 41.289062 C 70.894531 41.441406 71.015625 41.667969 71.015625 41.972656 C 71.015625 42.503906 70.589844 42.726562 69.574219 42.726562 C 68.300781 42.726562 68.019531 42.414062 67.925781 41.789062 C 67.917969 41.722656 67.863281 41.667969 67.792969 41.667969 L 67.167969 41.667969 C 67.074219 41.671875 67.027344 41.71875 67.023438 41.808594 C 67.023438 42.609375 67.464844 43.550781 69.574219 43.550781 C 71.097656 43.550781 71.976562 42.964844 71.976562 41.929688 C 71.976562 40.910156 71.265625 40.632812 69.789062 40.441406 C 68.292969 40.246094 68.152344 40.152344 68.152344 39.804688 C 68.152344 39.523438 68.273438 39.140625 69.378906 39.140625 C 70.367188 39.140625 70.734375 39.351562 70.882812 40.007812 C 70.894531 40.070312 70.949219 40.121094 71.015625 40.121094 L 71.640625 40.121094 C 71.679688 40.121094 71.71875 40.097656 71.742188 40.070312 C 71.769531 40.039062 71.789062 40.007812 71.785156 39.96875 C 71.6875 38.839844 70.921875 38.308594 69.378906 38.308594 Z M 69.378906 38.308594 " fill-opacity="1" fill-rule="nonzero"/></g><g clip-path="url(#96e8530814)"><path fill="#404137" d="M 39.757812 27.234375 C 39.703125 27.234375 39.652344 27.246094 39.605469 27.273438 C 39.503906 27.332031 39.453125 27.417969 39.453125 27.535156 L 39.453125 35.238281 C 39.453125 35.3125 39.414062 35.382812 39.347656 35.417969 C 39.277344 35.460938 39.207031 35.460938 39.132812 35.417969 L 37.855469 34.695312 C 37.652344 34.578125 37.445312 34.578125 37.242188 34.695312 L 32.136719 37.59375 C 31.945312 37.703125 31.828125 37.910156 31.828125 38.128906 L 31.828125 43.925781 C 31.828125 44.160156 31.929688 44.335938 32.136719 44.453125 L 37.242188 47.351562 C 37.445312 47.46875 37.652344 47.46875 37.855469 47.351562 L 42.960938 44.453125 C 43.167969 44.335938 43.269531 44.160156 43.269531 43.925781 L 43.269531 29.46875 C 43.269531 29.25 43.144531 29.042969 42.953125 28.933594 L 39.914062 27.261719 C 39.863281 27.238281 39.8125 27.230469 39.757812 27.230469 Z M 6.914062 34.472656 C 6.816406 34.476562 6.726562 34.492188 6.636719 34.542969 L 1.53125 37.441406 C 1.328125 37.558594 1.226562 37.734375 1.226562 37.964844 L 1.234375 45.75 C 1.234375 45.859375 1.292969 45.960938 1.390625 46.011719 C 1.484375 46.066406 1.601562 46.066406 1.695312 46.011719 L 4.726562 44.300781 C 4.917969 44.1875 5.042969 43.992188 5.042969 43.777344 L 5.042969 40.140625 C 5.042969 39.925781 5.15625 39.726562 5.347656 39.617188 L 6.636719 38.882812 C 6.734375 38.828125 6.835938 38.800781 6.945312 38.800781 C 7.054688 38.800781 7.15625 38.828125 7.253906 38.882812 L 8.539062 39.617188 C 8.730469 39.726562 8.847656 39.925781 8.847656 40.140625 L 8.847656 43.777344 C 8.847656 43.992188 8.976562 44.1875 9.164062 44.300781 L 12.195312 46.011719 C 12.289062 46.066406 12.40625 46.066406 12.5 46.011719 C 12.59375 45.957031 12.652344 45.859375 12.652344 45.75 L 12.664062 37.964844 C 12.664062 37.734375 12.5625 37.558594 12.355469 37.441406 L 7.25 34.542969 C 7.164062 34.492188 7.074219 34.476562 6.976562 34.472656 Z M 52.792969 34.542969 C 52.683594 34.542969 52.582031 34.570312 52.488281 34.625 L 47.378906 37.523438 C 47.191406 37.632812 47.074219 37.832031 47.074219 38.046875 L 47.074219 43.847656 C 47.074219 44.066406 47.199219 44.261719 47.390625 44.371094 L 52.457031 47.210938 C 52.640625 47.316406 52.871094 47.324219 53.058594 47.222656 L 56.128906 45.539062 C 56.226562 45.488281 56.292969 45.386719 56.292969 45.277344 C 56.292969 45.167969 56.234375 45.070312 56.136719 45.015625 L 51.003906 42.117188 C 50.90625 42.0625 50.839844 41.953125 50.839844 41.84375 L 50.839844 40.03125 C 50.839844 39.921875 50.90625 39.824219 51.003906 39.769531 L 52.597656 38.863281 C 52.691406 38.808594 52.808594 38.808594 52.90625 38.863281 L 54.503906 39.769531 C 54.609375 39.828125 54.660156 39.914062 54.660156 40.03125 L 54.660156 41.460938 C 54.660156 41.578125 54.710938 41.664062 54.8125 41.722656 C 54.90625 41.777344 55.023438 41.777344 55.121094 41.722656 L 58.179688 39.96875 C 58.367188 39.863281 58.484375 39.664062 58.484375 39.445312 L 58.484375 38.046875 C 58.484375 37.816406 58.382812 37.640625 58.179688 37.523438 L 53.101562 34.625 C 53.007812 34.570312 52.90625 34.542969 52.796875 34.542969 Z M 37.527344 38.875 C 37.554688 38.875 37.582031 38.878906 37.609375 38.894531 L 39.359375 39.890625 C 39.40625 39.917969 39.441406 39.96875 39.441406 40.019531 L 39.441406 42.015625 C 39.441406 42.070312 39.40625 42.117188 39.359375 42.144531 L 37.609375 43.140625 C 37.5625 43.167969 37.503906 43.167969 37.457031 43.140625 L 35.707031 42.144531 C 35.660156 42.117188 35.625 42.070312 35.625 42.015625 L 35.625 40.019531 C 35.625 39.96875 35.660156 39.917969 35.707031 39.890625 L 37.457031 38.894531 C 37.480469 38.878906 37.5 38.875 37.527344 38.875 Z M 37.527344 38.875 " fill-opacity="1" fill-rule="nonzero"/></g><g clip-path="url(#c78d282346)"><path fill="#83cd29" d="M 22.25 34.511719 C 22.140625 34.511719 22.039062 34.539062 21.945312 34.59375 L 16.839844 37.484375 C 16.648438 37.589844 16.53125 37.800781 16.53125 38.015625 L 16.53125 43.816406 C 16.53125 44.050781 16.632812 44.222656 16.839844 44.339844 L 21.945312 47.242188 C 22.148438 47.355469 22.351562 47.355469 22.558594 47.242188 L 27.664062 44.339844 C 27.867188 44.222656 27.972656 44.050781 27.972656 43.816406 L 27.972656 38.015625 C 27.972656 37.800781 27.855469 37.59375 27.664062 37.484375 L 22.558594 34.59375 C 22.464844 34.539062 22.359375 34.511719 22.25 34.511719 Z M 52.785156 39.6875 C 52.761719 39.6875 52.742188 39.6875 52.722656 39.699219 L 51.738281 40.261719 C 51.699219 40.285156 51.679688 40.316406 51.679688 40.363281 L 51.679688 41.46875 C 51.679688 41.511719 51.703125 41.550781 51.738281 41.570312 L 52.722656 42.125 C 52.757812 42.148438 52.796875 42.148438 52.835938 42.125 L 53.816406 41.570312 C 53.851562 41.550781 53.878906 41.511719 53.878906 41.46875 L 53.878906 40.363281 C 53.878906 40.320312 53.851562 40.28125 53.816406 40.261719 L 52.835938 39.699219 C 52.816406 39.6875 52.804688 39.6875 52.78125 39.6875 Z M 52.785156 39.6875 " fill-opacity="1" fill-rule="nonzero"/></g></svg>