<svg xmlns="http://www.w3.org/2000/svg" xmlns:xlink="http://www.w3.org/1999/xlink" width="100" zoomAndPan="magnify" viewBox="0 0 75 74.999997" height="100" preserveAspectRatio="xMidYMid meet" version="1.0"><defs><clipPath id="f6ad78b11e"><path d="M 6.148438 4.328125 L 64.648438 4.328125 L 64.648438 65 L 6.148438 65 Z M 6.148438 4.328125 " clip-rule="nonzero"/></clipPath><clipPath id="5c0af8e177"><path d="M 24 66.4375 L 53.851562 66.4375 L 53.851562 70.9375 L 24 70.9375 Z M 24 66.4375 " clip-rule="nonzero"/></clipPath></defs><path fill="#000000" d="M 60.628906 41.773438 C 60.628906 41.777344 60.628906 41.78125 60.625 41.78125 C 60.621094 41.78125 60.617188 41.777344 60.617188 41.773438 C 60.617188 41.773438 60.621094 41.769531 60.625 41.769531 C 60.628906 41.769531 60.628906 41.773438 60.628906 41.773438 Z M 60.628906 41.773438 " fill-opacity="1" fill-rule="nonzero"/><path fill="#32648d" d="M 53.15625 41.296875 L 53.160156 41.304688 L 53.152344 41.308594 C 52.785156 41.441406 52.484375 41.496094 52.230469 41.609375 C 51.96875 41.710938 51.761719 41.902344 51.636719 42.140625 L 51.632812 42.148438 C 51.476562 42.433594 51.339844 42.949219 51.382812 43.820312 C 51.484375 43.894531 51.613281 43.953125 51.738281 43.992188 L 51.75 43.996094 C 52.175781 44.125 52.890625 44.210938 53.6875 44.199219 C 55.273438 44.179688 57.230469 43.804688 58.269531 43.320312 C 59.167969 42.894531 59.933594 42.382812 60.617188 41.773438 C 57.144531 42.5 55.1875 42.304688 53.984375 41.804688 C 53.671875 41.667969 53.398438 41.5 53.15625 41.296875 Z M 53.15625 41.296875 " fill-opacity="1" fill-rule="nonzero"/><path fill="#32648d" d="M 49.597656 14.75 L 49.613281 14.773438 L 49.628906 14.792969 Z M 49.597656 14.75 " fill-opacity="1" fill-rule="nonzero"/><path fill="#32648d" d="M 36.324219 52.777344 C 36.324219 52.710938 36.324219 52.648438 36.324219 52.585938 C 36.324219 52.558594 36.320312 52.542969 36.320312 52.515625 Z M 36.324219 52.777344 " fill-opacity="1" fill-rule="nonzero"/><path fill="#32648d" d="M 33.664062 41.699219 C 33.519531 41.625 33.347656 41.570312 33.164062 41.546875 L 33.15625 41.546875 L 33.15625 41.542969 L 33.101562 41.542969 C 32.972656 41.554688 32.78125 41.597656 32.40625 42.015625 C 31.539062 42.992188 31.238281 43.609375 30.519531 44.183594 C 29.804688 44.753906 28.875 45.0625 27.019531 45.445312 C 26.433594 45.566406 26.09375 45.699219 25.875 45.808594 C 25.945312 45.867188 25.9375 45.882812 26.046875 45.941406 C 26.320312 46.089844 26.667969 46.222656 26.949219 46.296875 C 27.746094 46.496094 29.058594 46.730469 30.425781 46.496094 C 31.792969 46.261719 33.214844 45.601562 34.425781 43.886719 C 34.636719 43.589844 34.660156 43.152344 34.488281 42.683594 C 34.316406 42.214844 33.933594 41.808594 33.664062 41.699219 Z M 33.664062 41.699219 " fill-opacity="1" fill-rule="nonzero"/><path fill="#32648d" d="M 43.847656 8.097656 L 43.703125 8.125 C 43.75 8.117188 43.804688 8.113281 43.851562 8.101562 C 43.851562 8.101562 43.851562 8.097656 43.847656 8.097656 Z M 43.847656 8.097656 " fill-opacity="1" fill-rule="nonzero"/><path fill="#32648d" d="M 50.863281 21.648438 C 49.171875 21.671875 48.222656 22.113281 47.722656 22.6875 C 47.015625 23.503906 46.953125 24.933594 47.390625 26.695312 C 47.828125 28.460938 48.726562 30.433594 49.574219 32.074219 C 49.996094 32.894531 50.410156 33.632812 50.738281 34.230469 C 51.070312 34.835938 51.316406 35.261719 51.464844 35.625 C 51.601562 35.960938 51.753906 36.257812 51.910156 36.535156 C 52.566406 35.140625 52.679688 33.773438 52.613281 32.347656 C 52.53125 30.582031 52.121094 28.777344 52.179688 26.949219 C 52.25 24.8125 52.667969 23.421875 52.703125 21.769531 C 52.152344 21.695312 51.511719 21.648438 50.863281 21.648438 Z M 51.175781 22.921875 L 51.171875 22.941406 C 51.171875 22.949219 51.171875 22.957031 51.171875 22.964844 C 51.171875 23.082031 51.140625 23.191406 51.082031 23.28125 L 51.085938 23.277344 C 51.007812 23.421875 50.914062 23.546875 50.808594 23.65625 C 50.5625 23.929688 50.230469 24.121094 49.859375 24.183594 L 49.847656 24.1875 C 49.796875 24.195312 49.734375 24.199219 49.671875 24.199219 C 49.355469 24.199219 49.0625 24.097656 48.824219 23.925781 L 48.828125 23.929688 C 48.703125 23.84375 48.59375 23.746094 48.507812 23.636719 L 48.503906 23.632812 C 48.425781 23.546875 48.371094 23.4375 48.347656 23.320312 L 48.347656 23.3125 C 48.347656 23.300781 48.347656 23.289062 48.347656 23.277344 C 48.347656 23.167969 48.386719 23.066406 48.453125 22.992188 C 48.535156 22.898438 48.632812 22.824219 48.742188 22.769531 L 48.746094 22.765625 C 48.988281 22.632812 49.308594 22.53125 49.675781 22.476562 C 49.8125 22.457031 49.945312 22.445312 50.074219 22.441406 L 50.074219 22.449219 L 50.195312 22.449219 C 50.359375 22.457031 50.511719 22.472656 50.644531 22.507812 C 50.78125 22.535156 50.894531 22.582031 50.988281 22.644531 C 51.082031 22.707031 51.152344 22.800781 51.175781 22.921875 Z M 51.175781 22.921875 " fill-opacity="1" fill-rule="nonzero"/><path fill="#32648d" d="M 23.113281 32.714844 C 23.113281 32.261719 23.148438 31.820312 23.214844 31.386719 L 23.207031 31.433594 C 23.464844 29.578125 23.5 27.84375 23.46875 26.472656 C 23.441406 25.136719 23.34375 24.25 23.34375 23.691406 C 23.34375 23.6875 23.34375 23.679688 23.34375 23.671875 C 23.34375 23.664062 23.34375 23.652344 23.34375 23.644531 L 23.34375 23.632812 L 23.339844 23.617188 C 23.339844 23.609375 23.339844 23.609375 23.339844 23.601562 C 23.339844 20.628906 23.867188 17.78125 24.816406 15.136719 C 25.515625 13.269531 26.554688 11.375 28.109375 9.839844 C 26.578125 9.332031 23.867188 8.558594 20.925781 8.414062 C 20.644531 8.398438 20.3125 8.386719 19.984375 8.386719 L 19.980469 8.386719 L 19.980469 8.390625 C 19.664062 8.390625 19.347656 8.402344 19.035156 8.417969 C 16.519531 8.5625 14.136719 9.300781 12.4375 11.117188 C 10.734375 12.933594 9.613281 15.914062 9.855469 20.847656 C 9.902344 21.78125 10.308594 24.394531 11 27.503906 C 11.691406 30.613281 12.667969 34.269531 13.84375 37.5 C 15.019531 40.730469 16.449219 43.542969 17.804688 44.871094 C 18.488281 45.539062 19.082031 45.808594 19.617188 45.785156 C 20.15625 45.757812 20.808594 45.445312 21.601562 44.484375 C 23.164062 42.589844 24.636719 40.917969 26.160156 39.289062 L 26.109375 39.34375 C 24.269531 37.722656 23.113281 35.355469 23.113281 32.714844 Z M 23.113281 32.714844 " fill-opacity="1" fill-rule="nonzero"/><path fill="#32648d" d="M 36.523438 8.265625 L 36.523438 8.261719 C 33.578125 8.265625 31.46875 9.164062 29.863281 10.507812 C 28.214844 11.894531 27.105469 13.796875 26.378906 15.742188 C 25.511719 18.050781 25.21875 20.285156 25.097656 21.800781 L 25.132812 21.78125 C 26.023438 21.277344 27.191406 20.777344 28.441406 20.484375 C 29.691406 20.195312 31.039062 20.105469 32.257812 20.582031 C 33.480469 21.058594 34.488281 22.183594 34.851562 23.882812 C 36.605469 32.058594 34.308594 35.101562 33.460938 37.394531 C 33.191406 38.054688 32.910156 38.902344 32.675781 39.769531 L 32.636719 39.9375 C 32.742188 39.914062 32.851562 39.882812 32.957031 39.871094 C 33.554688 39.820312 34.023438 40.023438 34.300781 40.144531 C 35.152344 40.5 35.738281 41.25 36.054688 42.101562 C 36.136719 42.324219 36.195312 42.566406 36.230469 42.816406 C 36.261719 42.898438 36.28125 43 36.28125 43.101562 C 36.28125 43.113281 36.28125 43.125 36.28125 43.132812 C 36.238281 44.386719 36.214844 45.863281 36.214844 47.34375 C 36.214844 49.097656 36.25 50.84375 36.316406 52.585938 C 36.375 53.90625 36.457031 55.074219 36.558594 55.996094 C 36.667969 56.933594 36.820312 57.644531 36.914062 57.886719 C 37.234375 58.691406 37.699219 59.742188 38.542969 60.457031 C 39.382812 61.171875 40.59375 61.648438 42.796875 61.171875 C 44.710938 60.757812 45.890625 60.179688 46.683594 59.355469 C 47.472656 58.527344 47.941406 57.378906 48.238281 55.621094 C 48.691406 52.984375 49.597656 45.339844 49.707031 43.902344 C 49.65625 42.816406 49.816406 41.984375 50.160156 41.347656 C 50.515625 40.695312 51.0625 40.296875 51.535156 40.082031 C 51.773438 39.972656 51.996094 39.898438 52.175781 39.847656 C 51.953125 39.527344 51.753906 39.261719 51.546875 39.003906 L 51.570312 39.03125 C 50.917969 38.238281 50.359375 37.328125 49.941406 36.34375 L 49.910156 36.273438 C 49.65625 35.746094 49.441406 35.351562 49.21875 34.960938 L 49.269531 35.058594 C 48.941406 34.457031 48.523438 33.703125 48.082031 32.859375 C 47.207031 31.164062 46.253906 29.109375 45.757812 27.109375 C 45.261719 25.113281 45.191406 23.042969 46.457031 21.585938 C 47.578125 20.289062 49.546875 19.753906 52.5 20.054688 C 52.414062 19.789062 52.359375 19.570312 52.210938 19.21875 C 51.492188 17.539062 50.628906 16.085938 49.601562 14.773438 C 47.097656 11.554688 43.050781 8.367188 36.800781 8.265625 Z M 36.523438 8.265625 " fill-opacity="1" fill-rule="nonzero"/><path fill="#32648d" d="M 25.0625 23.832031 L 25.070312 23.832031 L 25.078125 23.824219 Z M 25.0625 23.832031 " fill-opacity="1" fill-rule="nonzero"/><path fill="#32648d" d="M 28.769531 22.132812 L 28.796875 22.132812 L 28.816406 22.125 Z M 28.769531 22.132812 " fill-opacity="1" fill-rule="nonzero"/><path fill="#32648d" d="M 31.894531 36.804688 C 32.90625 34.058594 34.894531 32.054688 33.222656 24.238281 C 32.945312 22.957031 32.40625 22.441406 31.65625 22.148438 C 31.292969 22.015625 30.875 21.9375 30.433594 21.9375 C 30.40625 21.9375 30.375 21.9375 30.347656 21.9375 L 30.351562 21.9375 C 29.816406 21.945312 29.296875 22.011719 28.796875 22.132812 C 27.738281 22.398438 26.804688 22.773438 25.9375 23.257812 C 25.609375 23.433594 25.332031 23.621094 25.070312 23.828125 L 25.019531 23.875 C 25.035156 24.242188 25.105469 25.128906 25.136719 26.4375 C 25.167969 27.867188 25.132812 29.691406 24.855469 31.667969 C 24.261719 35.960938 27.355469 39.515625 30.984375 39.519531 C 31.199219 38.640625 31.546875 37.746094 31.894531 36.804688 Z M 29.75 24.332031 C 29.628906 24.210938 29.535156 24.074219 29.457031 23.925781 L 29.453125 23.917969 C 29.386719 23.8125 29.347656 23.683594 29.347656 23.546875 C 29.347656 23.519531 29.351562 23.496094 29.351562 23.46875 L 29.351562 23.472656 C 29.390625 23.203125 29.613281 23.0625 29.828125 22.984375 C 30.027344 22.917969 30.25 22.878906 30.484375 22.878906 C 30.519531 22.878906 30.554688 22.878906 30.597656 22.882812 L 30.59375 22.871094 C 30.726562 22.871094 30.867188 22.886719 31.007812 22.90625 C 31.386719 22.957031 31.730469 23.0625 31.984375 23.210938 C 32.113281 23.28125 32.226562 23.371094 32.3125 23.476562 L 32.316406 23.476562 C 32.402344 23.574219 32.453125 23.703125 32.453125 23.847656 C 32.453125 23.867188 32.453125 23.886719 32.449219 23.90625 L 32.449219 23.902344 C 32.425781 24.054688 32.355469 24.183594 32.261719 24.289062 C 32.160156 24.417969 32.042969 24.523438 31.914062 24.613281 L 31.90625 24.617188 C 31.652344 24.804688 31.332031 24.914062 30.988281 24.914062 C 30.917969 24.914062 30.851562 24.910156 30.785156 24.902344 L 30.792969 24.902344 C 30.375 24.832031 30.015625 24.625 29.75 24.332031 Z M 29.75 24.332031 " fill-opacity="1" fill-rule="nonzero"/><path fill="#32648d" d="M 25.886719 23.28125 C 25.902344 23.273438 25.921875 23.265625 25.9375 23.257812 C 25.9375 23.257812 25.941406 23.253906 25.945312 23.25 Z M 25.886719 23.28125 " fill-opacity="1" fill-rule="nonzero"/><path fill="#32648d" d="M 50.945312 13.746094 C 52.039062 15.140625 52.984375 16.726562 53.710938 18.429688 L 53.765625 18.566406 C 54.039062 19.230469 54.222656 19.789062 54.328125 20.222656 C 54.378906 20.441406 54.414062 20.625 54.429688 20.816406 C 54.433594 20.910156 54.4375 21.011719 54.398438 21.179688 C 54.398438 21.183594 54.386719 21.203125 54.382812 21.210938 C 54.457031 23.410156 53.917969 24.902344 53.851562 27 C 53.804688 28.519531 54.1875 30.308594 54.285156 32.257812 C 54.375 34.089844 54.15625 36.105469 52.972656 38.078125 C 53.074219 38.199219 53.164062 38.320312 53.257812 38.441406 C 56.382812 33.484375 58.632812 28 59.835938 23.320312 C 60.476562 20.804688 60.816406 18.523438 60.847656 16.714844 C 60.875 14.90625 60.539062 13.597656 60.113281 13.050781 C 56.769531 8.742188 52.25 7.644531 48.457031 7.613281 L 48.457031 7.617188 L 48.09375 7.617188 C 46.632812 7.640625 45.21875 7.808594 43.855469 8.101562 C 46.953125 9.488281 49.296875 11.621094 50.945312 13.746094 Z M 50.945312 13.746094 " fill-opacity="1" fill-rule="nonzero"/><g clip-path="url(#f6ad78b11e)"><path fill="#000000" d="M 36.941406 4.976562 L 36.914062 4.976562 C 33.980469 4.925781 31.460938 5.644531 29.425781 6.839844 C 27.425781 6.136719 23.269531 4.929688 18.890625 5.171875 C 15.84375 5.339844 12.515625 6.273438 10.046875 8.898438 C 7.589844 11.519531 6.289062 15.578125 6.5625 21.101562 C 6.636719 22.625 7.070312 25.113281 7.785156 28.328125 C 8.5 31.546875 9.503906 35.316406 10.757812 38.753906 C 12.007812 42.191406 13.382812 45.28125 15.527344 47.378906 C 16.597656 48.429688 18.074219 49.3125 19.8125 49.242188 C 21.03125 49.191406 22.132812 48.652344 23.085938 47.855469 C 23.550781 48.46875 24.046875 48.738281 24.496094 48.988281 C 25.0625 49.300781 25.617188 49.515625 26.1875 49.65625 C 27.21875 49.914062 28.976562 50.261719 31.039062 49.90625 C 31.742188 49.789062 32.484375 49.558594 33.21875 49.226562 C 33.246094 50.058594 33.28125 50.867188 33.308594 51.6875 C 33.414062 54.289062 33.476562 56.691406 34.25 58.796875 C 34.375 59.140625 34.714844 60.914062 36.0625 62.476562 C 37.40625 64.042969 40.042969 65.019531 43.042969 64.375 C 45.160156 63.917969 47.851562 63.09375 49.640625 60.527344 C 51.410156 57.992188 52.207031 54.355469 52.367188 48.457031 C 52.40625 48.136719 52.453125 47.867188 52.5 47.613281 L 52.921875 47.648438 L 52.972656 47.648438 C 55.234375 47.753906 57.683594 47.429688 59.730469 46.46875 C 61.542969 45.625 62.914062 44.765625 63.917969 43.25 C 64.167969 42.871094 64.4375 42.417969 64.515625 41.632812 C 64.589844 40.851562 64.144531 39.625 63.402344 39.0625 C 61.917969 37.925781 60.988281 38.359375 59.992188 38.566406 C 59.101562 38.777344 58.070312 38.90625 57.019531 38.933594 L 56.996094 38.933594 C 59.878906 34.046875 61.941406 28.855469 63.121094 24.261719 C 63.820312 21.550781 64.210938 19.050781 64.238281 16.863281 C 64.273438 14.675781 64.097656 12.742188 62.792969 11.066406 C 58.734375 5.835938 53.019531 4.390625 48.601562 4.339844 C 48.464844 4.335938 48.324219 4.332031 48.191406 4.335938 L 48.191406 4.328125 C 45.785156 4.347656 43.46875 4.710938 41.277344 5.355469 L 41.175781 5.390625 C 39.910156 5.15625 38.4375 5.003906 36.941406 4.976562 Z M 42.914062 6.574219 C 44.457031 6.195312 46.234375 5.96875 48.058594 5.945312 L 48.074219 5.945312 L 48.074219 5.933594 C 52.257812 5.894531 57.59375 7.078125 61.429688 12.015625 C 62.292969 13.125 62.550781 14.746094 62.519531 16.746094 C 62.488281 18.742188 62.121094 21.128906 61.449219 23.75 C 60.148438 28.820312 57.695312 34.730469 54.234375 40.035156 C 54.347656 40.117188 54.480469 40.191406 54.613281 40.246094 L 54.628906 40.25 C 55.347656 40.550781 56.996094 40.8125 60.28125 40.132812 C 61.109375 39.957031 61.714844 39.835938 62.339844 40.320312 C 62.625 40.558594 62.800781 40.917969 62.800781 41.316406 C 62.800781 41.339844 62.800781 41.367188 62.796875 41.390625 L 62.796875 41.386719 C 62.757812 41.707031 62.644531 41.992188 62.472656 42.230469 C 61.835938 43.195312 60.582031 44.105469 58.980469 44.855469 C 57.558594 45.523438 55.515625 45.871094 53.710938 45.890625 C 52.800781 45.902344 51.96875 45.832031 51.257812 45.609375 L 51.210938 45.589844 C 50.9375 48.25 50.304688 53.507812 49.894531 55.902344 C 49.566406 57.835938 48.992188 59.371094 47.890625 60.523438 C 46.796875 61.671875 45.246094 62.363281 43.15625 62.816406 C 40.570312 63.375 38.6875 62.773438 37.46875 61.742188 C 36.257812 60.714844 35.703125 59.347656 35.367188 58.511719 C 35.136719 57.933594 35.019531 57.1875 34.902344 56.1875 C 34.789062 55.1875 34.703125 53.964844 34.644531 52.585938 C 34.589844 51.1875 34.558594 49.539062 34.558594 47.886719 C 34.558594 47.339844 34.566406 46.796875 34.570312 46.253906 C 33.527344 47.21875 32.210938 47.894531 30.75 48.152344 L 30.703125 48.160156 C 28.988281 48.457031 27.457031 48.167969 26.542969 47.9375 C 26.054688 47.8125 25.632812 47.640625 25.234375 47.421875 C 24.8125 47.199219 24.414062 46.9375 24.148438 46.433594 C 24.042969 46.242188 23.980469 46.007812 23.980469 45.761719 C 23.980469 45.664062 23.988281 45.566406 24.011719 45.476562 C 24.101562 45.140625 24.289062 44.851562 24.550781 44.652344 L 24.550781 44.648438 C 25.046875 44.246094 25.695312 44.019531 26.683594 43.8125 C 28.472656 43.441406 29.097656 43.1875 29.480469 42.886719 C 29.800781 42.625 30.171875 42.097656 30.816406 41.324219 C 30.8125 41.300781 30.8125 41.261719 30.808594 41.226562 L 30.808594 41.21875 C 29.585938 41.183594 28.449219 40.855469 27.457031 40.300781 L 27.496094 40.320312 C 27.121094 40.71875 25.210938 42.75 22.886719 45.574219 C 21.910156 46.753906 20.828125 47.429688 19.6875 47.480469 C 18.546875 47.527344 17.515625 46.949219 16.640625 46.09375 C 14.886719 44.378906 13.488281 41.429688 12.273438 38.09375 C 11.054688 34.761719 10.066406 31.046875 9.363281 27.886719 C 8.660156 24.722656 8.246094 22.171875 8.183594 20.941406 C 7.921875 15.714844 9.136719 12.195312 11.214844 9.972656 C 13.296875 7.75 16.152344 6.910156 18.933594 6.75 C 23.929688 6.460938 28.667969 8.214844 29.628906 8.589844 C 31.480469 7.324219 33.863281 6.539062 36.835938 6.589844 C 38.335938 6.609375 39.773438 6.808594 41.152344 7.164062 L 41.027344 7.136719 L 41.074219 7.113281 C 41.558594 6.933594 42.171875 6.75 42.804688 6.597656 Z M 42.914062 6.574219 " fill-opacity="1" fill-rule="nonzero"/></g><g clip-path="url(#5c0af8e177)"><path fill="#000000" d="M 25.859375 68.238281 L 24.417969 68.238281 L 24.417969 66.796875 L 25.9375 66.796875 C 26.496094 66.796875 26.773438 67.039062 26.773438 67.527344 C 26.773438 68 26.46875 68.238281 25.859375 68.238281 M 26.894531 66.78125 C 26.699219 66.605469 26.421875 66.515625 26.066406 66.515625 L 24.003906 66.527344 L 24.003906 69.976562 L 24.417969 69.976562 L 24.414062 68.507812 L 25.949219 68.507812 C 26.335938 68.507812 26.640625 68.421875 26.859375 68.246094 C 27.082031 68.066406 27.191406 67.824219 27.191406 67.511719 C 27.191406 67.199219 27.09375 66.957031 26.894531 66.78125 Z M 29.585938 69.253906 C 29.546875 69.367188 29.480469 69.464844 29.390625 69.546875 C 29.203125 69.726562 28.917969 69.816406 28.539062 69.816406 C 28.191406 69.816406 27.925781 69.730469 27.742188 69.554688 C 27.558594 69.378906 27.464844 69.140625 27.464844 68.847656 C 27.464844 68.695312 27.488281 68.558594 27.539062 68.441406 C 27.585938 68.320312 27.65625 68.222656 27.746094 68.140625 C 27.9375 67.964844 28.203125 67.878906 28.539062 67.878906 C 29.28125 67.878906 29.648438 68.203125 29.648438 68.847656 C 29.648438 69.003906 29.628906 69.136719 29.585938 69.253906 M 29.664062 67.980469 C 29.410156 67.75 29.035156 67.636719 28.539062 67.636719 C 28.066406 67.636719 27.707031 67.753906 27.449219 67.988281 C 27.21875 68.199219 27.101562 68.488281 27.101562 68.847656 C 27.101562 69.207031 27.222656 69.496094 27.460938 69.714844 C 27.59375 69.835938 27.746094 69.917969 27.917969 69.972656 C 28.09375 70.027344 28.300781 70.050781 28.535156 70.050781 C 29.03125 70.050781 29.40625 69.9375 29.664062 69.710938 C 29.894531 69.503906 30.011719 69.214844 30.011719 68.847656 C 30.011719 68.476562 29.894531 68.1875 29.660156 67.980469 Z M 32.808594 69.351562 C 32.808594 69.816406 32.390625 70.046875 31.554688 70.046875 C 31.296875 70.046875 31.082031 70.03125 30.90625 70 C 30.730469 69.964844 30.589844 69.914062 30.480469 69.839844 C 30.398438 69.78125 30.328125 69.707031 30.28125 69.617188 C 30.230469 69.523438 30.199219 69.410156 30.183594 69.273438 L 30.574219 69.269531 C 30.574219 69.449219 30.640625 69.585938 30.777344 69.671875 C 30.921875 69.777344 31.183594 69.828125 31.554688 69.828125 C 32.136719 69.828125 32.429688 69.683594 32.429688 69.390625 C 32.429688 69.21875 32.332031 69.101562 32.136719 69.039062 C 32.097656 69.027344 31.859375 68.992188 31.425781 68.941406 C 30.996094 68.886719 30.726562 68.839844 30.617188 68.796875 C 30.386719 68.707031 30.273438 68.542969 30.273438 68.304688 C 30.273438 68.074219 30.375 67.898438 30.582031 67.785156 C 30.683594 67.738281 30.808594 67.703125 30.964844 67.675781 C 31.117188 67.652344 31.292969 67.636719 31.496094 67.636719 C 32.300781 67.636719 32.703125 67.890625 32.703125 68.390625 L 32.332031 68.390625 C 32.332031 68.039062 32.046875 67.863281 31.484375 67.863281 C 31.195312 67.863281 30.980469 67.898438 30.839844 67.96875 C 30.699219 68.042969 30.628906 68.152344 30.628906 68.300781 C 30.628906 68.4375 30.722656 68.539062 30.914062 68.601562 C 31.027344 68.632812 31.28125 68.667969 31.683594 68.710938 C 32.046875 68.742188 32.292969 68.789062 32.425781 68.847656 C 32.679688 68.945312 32.808594 69.113281 32.808594 69.351562 Z M 34.335938 69.980469 L 34.175781 70.003906 L 34.078125 70.007812 C 33.824219 70.007812 33.644531 69.972656 33.53125 69.898438 C 33.417969 69.828125 33.363281 69.699219 33.363281 69.515625 L 33.363281 67.941406 L 32.902344 67.941406 L 32.902344 67.710938 L 33.359375 67.710938 L 33.363281 66.964844 L 33.71875 66.964844 L 33.71875 67.710938 L 34.335938 67.710938 L 34.335938 67.945312 L 33.71875 67.941406 L 33.71875 69.472656 C 33.71875 69.589844 33.746094 69.667969 33.808594 69.710938 C 33.871094 69.753906 33.980469 69.773438 34.132812 69.773438 C 34.15625 69.777344 34.179688 69.777344 34.207031 69.773438 C 34.234375 69.769531 34.277344 69.757812 34.332031 69.746094 Z M 36.789062 69.457031 C 36.691406 69.539062 36.582031 69.597656 36.457031 69.640625 C 36.332031 69.683594 36.191406 69.703125 36.03125 69.703125 C 35.289062 69.703125 34.917969 69.398438 34.917969 68.789062 C 34.917969 68.503906 35.011719 68.28125 35.203125 68.121094 C 35.390625 67.960938 35.660156 67.882812 36.003906 67.882812 C 36.351562 67.882812 36.613281 67.960938 36.792969 68.125 C 36.972656 68.285156 37.0625 68.503906 37.0625 68.773438 C 37.0625 69.070312 36.972656 69.296875 36.789062 69.457031 M 37.417969 67.710938 L 37.0625 67.710938 L 37.058594 68.101562 C 36.902344 67.945312 36.792969 67.84375 36.726562 67.800781 C 36.527344 67.695312 36.269531 67.640625 35.953125 67.640625 C 35.492188 67.640625 35.140625 67.746094 34.898438 67.953125 C 34.667969 68.148438 34.550781 68.425781 34.550781 68.789062 C 34.550781 68.972656 34.578125 69.132812 34.636719 69.273438 C 34.695312 69.414062 34.78125 69.535156 34.894531 69.632812 C 35.136719 69.835938 35.480469 69.9375 35.925781 69.9375 C 36.460938 69.9375 36.839844 69.792969 37.0625 69.503906 L 37.0625 69.90625 C 37.0625 70.160156 36.984375 70.359375 36.820312 70.5 C 36.65625 70.640625 36.390625 70.710938 36.019531 70.710938 C 35.667969 70.710938 35.417969 70.664062 35.269531 70.566406 C 35.15625 70.496094 35.082031 70.367188 35.039062 70.183594 L 34.671875 70.183594 C 34.714844 70.4375 34.820312 70.621094 34.996094 70.734375 C 35.203125 70.867188 35.546875 70.933594 36.03125 70.933594 C 36.957031 70.933594 37.417969 70.589844 37.417969 69.90625 Z M 39.335938 67.941406 C 39.230469 67.925781 39.132812 67.914062 39.039062 67.914062 C 38.457031 67.914062 38.164062 68.234375 38.164062 68.871094 L 38.164062 69.976562 L 37.816406 69.976562 L 37.8125 67.710938 L 38.164062 67.714844 L 38.164062 68.121094 L 38.183594 68.121094 C 38.242188 67.960938 38.339844 67.839844 38.46875 67.757812 C 38.609375 67.679688 38.820312 67.640625 39.101562 67.640625 L 39.335938 67.640625 Z M 39.667969 68.703125 C 39.710938 68.445312 39.8125 68.246094 39.96875 68.105469 C 40.070312 68.023438 40.183594 67.960938 40.316406 67.921875 C 40.445312 67.878906 40.589844 67.859375 40.75 67.859375 C 41.066406 67.859375 41.324219 67.945312 41.523438 68.117188 C 41.722656 68.289062 41.820312 68.484375 41.820312 68.699219 L 39.664062 68.699219 M 41.855469 68.003906 C 41.730469 67.878906 41.578125 67.785156 41.394531 67.726562 C 41.210938 67.667969 40.996094 67.640625 40.75 67.640625 C 40.289062 67.640625 39.933594 67.746094 39.679688 67.957031 C 39.425781 68.171875 39.300781 68.460938 39.300781 68.824219 C 39.300781 69.191406 39.421875 69.480469 39.664062 69.695312 C 39.929688 69.933594 40.300781 70.050781 40.777344 70.050781 C 40.96875 70.050781 41.144531 70.03125 41.308594 69.988281 C 41.472656 69.945312 41.613281 69.882812 41.734375 69.804688 C 41.949219 69.652344 42.082031 69.464844 42.140625 69.238281 L 41.757812 69.238281 C 41.625 69.625 41.296875 69.820312 40.773438 69.820312 C 40.40625 69.820312 40.121094 69.726562 39.921875 69.535156 C 39.75 69.375 39.664062 69.164062 39.664062 68.90625 L 42.195312 68.90625 C 42.195312 68.523438 42.082031 68.222656 41.855469 68.003906 Z M 45.941406 69.050781 C 45.941406 69.722656 45.398438 70.058594 44.308594 70.058594 C 43.65625 70.058594 43.179688 69.941406 42.878906 69.710938 C 42.632812 69.519531 42.507812 69.230469 42.507812 68.839844 L 42.949219 68.839844 C 42.949219 69.46875 43.398438 69.78125 44.308594 69.78125 C 44.742188 69.78125 45.054688 69.714844 45.25 69.589844 C 45.414062 69.476562 45.496094 69.296875 45.496094 69.054688 C 45.496094 68.816406 45.382812 68.648438 45.160156 68.550781 C 45.035156 68.5 44.722656 68.433594 44.234375 68.355469 C 43.613281 68.261719 43.214844 68.167969 43.03125 68.074219 C 42.765625 67.9375 42.632812 67.703125 42.632812 67.371094 C 42.632812 67.0625 42.746094 66.832031 42.96875 66.683594 C 43.214844 66.519531 43.628906 66.4375 44.222656 66.4375 C 45.289062 66.4375 45.824219 66.789062 45.824219 67.496094 L 45.378906 67.496094 C 45.378906 66.964844 44.984375 66.703125 44.191406 66.703125 C 43.792969 66.703125 43.503906 66.753906 43.320312 66.859375 C 43.144531 66.976562 43.058594 67.140625 43.058594 67.363281 C 43.058594 67.589844 43.167969 67.753906 43.394531 67.847656 C 43.511719 67.902344 43.863281 67.976562 44.441406 68.074219 C 44.988281 68.15625 45.359375 68.25 45.550781 68.359375 C 45.8125 68.492188 45.941406 68.722656 45.941406 69.050781 Z M 49.503906 69.394531 C 49.339844 69.523438 49.15625 69.621094 48.949219 69.6875 C 48.742188 69.753906 48.511719 69.785156 48.253906 69.785156 C 47.734375 69.785156 47.3125 69.644531 46.992188 69.367188 C 46.667969 69.085938 46.507812 68.714844 46.507812 68.25 C 46.507812 67.761719 46.667969 67.382812 46.988281 67.113281 C 47.304688 66.84375 47.730469 66.707031 48.257812 66.707031 C 48.789062 66.707031 49.210938 66.847656 49.515625 67.132812 C 49.679688 67.269531 49.796875 67.429688 49.875 67.617188 C 49.953125 67.800781 49.988281 68.011719 49.988281 68.25 C 49.988281 68.734375 49.828125 69.113281 49.503906 69.394531 M 49.738281 69.625 C 49.96875 69.464844 50.136719 69.269531 50.246094 69.039062 C 50.355469 68.8125 50.410156 68.550781 50.410156 68.25 C 50.410156 67.714844 50.230469 67.285156 49.871094 66.960938 C 49.679688 66.785156 49.449219 66.652344 49.179688 66.566406 C 48.910156 66.480469 48.601562 66.4375 48.253906 66.4375 C 47.578125 66.4375 47.046875 66.597656 46.664062 66.925781 C 46.277344 67.25 46.085938 67.691406 46.085938 68.25 C 46.085938 68.792969 46.277344 69.230469 46.667969 69.5625 C 47.054688 69.898438 47.585938 70.0625 48.257812 70.0625 C 48.523438 70.0625 48.753906 70.046875 48.949219 70.011719 C 49.144531 69.976562 49.3125 69.921875 49.449219 69.847656 L 50.09375 70.292969 L 50.367188 70.046875 Z M 53.695312 69.976562 L 50.695312 69.976562 L 50.695312 66.523438 L 51.109375 66.515625 L 51.109375 69.6875 L 53.699219 69.6875 Z M 53.695312 69.976562 " fill-opacity="1" fill-rule="nonzero"/></g></svg>