<svg xmlns="http://www.w3.org/2000/svg" xmlns:xlink="http://www.w3.org/1999/xlink" width="100" zoomAndPan="magnify" viewBox="0 0 75 74.999997" height="100" preserveAspectRatio="xMidYMid meet" version="1.0"><defs><clipPath id="32f36e7b86"><path d="M 24 0 L 51 0 L 51 74.25 L 24 74.25 Z M 24 0 " clip-rule="nonzero"/></clipPath></defs><g clip-path="url(#32f36e7b86)"><path fill="#050d42" d="M 37.507812 74.230469 C 29.832031 74.230469 24.269531 57.664062 24.269531 37.125 C 24.269531 16.585938 29.832031 0.0195312 37.507812 0.0195312 C 45.183594 0.0195312 50.742188 16.585938 50.742188 37.125 C 50.742188 57.664062 45.183594 74.230469 37.507812 74.230469 Z M 37.507812 71.578125 C 42.933594 71.578125 48.09375 56.207031 48.09375 37.125 C 48.09375 18.042969 42.933594 2.671875 37.507812 2.671875 C 32.082031 2.671875 26.917969 18.042969 26.917969 37.125 C 26.917969 56.207031 32.082031 71.578125 37.507812 71.578125 Z M 37.507812 71.578125 " fill-opacity="1" fill-rule="nonzero"/></g><path fill="#050d42" d="M 5.476562 55.675781 C 1.507812 49.050781 13.152344 35.933594 30.890625 25.597656 C 48.625 15.257812 65.699219 11.945312 69.535156 18.574219 C 73.375 25.199219 61.859375 38.316406 44.125 48.652344 C 26.390625 58.992188 9.316406 62.304688 5.476562 55.675781 Z M 7.726562 54.351562 C 10.507812 59.125 26.390625 55.808594 42.800781 46.269531 C 59.210938 36.726562 70.066406 24.667969 67.285156 19.898438 C 64.507812 15.125 48.625 18.441406 32.210938 27.980469 C 15.800781 37.523438 4.949219 49.582031 7.726562 54.351562 Z M 7.726562 54.351562 " fill-opacity="1" fill-rule="nonzero"/><path fill="#050d42" d="M 69.535156 55.675781 C 65.699219 62.304688 48.492188 58.859375 30.890625 48.652344 C 13.285156 38.449219 1.507812 25.199219 5.476562 18.574219 C 9.449219 11.945312 26.519531 15.390625 44.125 25.597656 C 61.726562 35.800781 73.507812 49.050781 69.535156 55.675781 Z M 67.285156 54.351562 C 70.066406 49.582031 59.210938 37.523438 42.800781 27.980469 C 26.390625 18.441406 10.375 15.125 7.726562 19.898438 C 5.082031 24.667969 15.800781 36.726562 32.210938 46.269531 C 48.625 55.808594 64.640625 59.125 67.285156 54.351562 Z M 67.285156 54.351562 " fill-opacity="1" fill-rule="nonzero"/><path fill="#2f4bff" d="M 37.507812 43.75 C 33.800781 43.75 30.890625 40.835938 30.890625 37.125 C 30.890625 33.414062 33.800781 30.5 37.507812 30.5 C 41.210938 30.5 44.125 33.414062 44.125 37.125 C 44.125 40.835938 41.210938 43.75 37.507812 43.75 Z M 17.652344 20.558594 C 15.402344 20.558594 13.683594 18.835938 13.683594 16.585938 C 13.683594 14.332031 15.402344 12.609375 17.652344 12.609375 C 19.902344 12.609375 21.625 14.332031 21.625 16.585938 C 21.625 18.835938 19.902344 20.558594 17.652344 20.558594 Z M 29.566406 67.605469 C 27.316406 67.605469 25.59375 65.882812 25.59375 63.628906 C 25.59375 61.375 27.316406 59.652344 29.566406 59.652344 C 31.816406 59.652344 33.535156 61.375 33.535156 63.628906 C 33.535156 65.882812 31.816406 67.605469 29.566406 67.605469 Z M 66.625 31.824219 C 64.375 31.824219 62.652344 30.101562 62.652344 27.847656 C 62.652344 25.597656 64.375 23.875 66.625 23.875 C 68.875 23.875 70.59375 25.597656 70.59375 27.847656 C 70.59375 30.101562 68.875 31.824219 66.625 31.824219 Z M 66.625 31.824219 " fill-opacity="1" fill-rule="nonzero"/></svg>