<svg xmlns="http://www.w3.org/2000/svg" xmlns:xlink="http://www.w3.org/1999/xlink" width="100" zoomAndPan="magnify" viewBox="0 0 75 74.999997" height="100" preserveAspectRatio="xMidYMid meet" version="1.0"><defs><clipPath id="ccacdd86c0"><path d="M 28 34 L 74.871094 34 L 74.871094 48 L 28 48 Z M 28 34 " clip-rule="nonzero"/></clipPath></defs><path fill="#68bd45" d="M 23.609375 27.855469 C 23.253906 28.707031 22.800781 29.507812 22.257812 30.253906 C 19.023438 27.019531 14.300781 25.777344 9.894531 27.003906 C 5.484375 28.230469 2.074219 31.714844 0.964844 36.152344 C -0.144531 40.589844 1.214844 45.28125 4.527344 48.4375 L 4.996094 48.851562 C 5.890625 49.605469 6.871094 50.222656 7.9375 50.707031 C 9.003906 51.191406 10.117188 51.519531 11.273438 51.695312 C 12.429688 51.871094 13.589844 51.882812 14.753906 51.738281 C 15.914062 51.59375 17.035156 51.292969 18.113281 50.835938 C 19.191406 50.378906 20.1875 49.785156 21.101562 49.054688 C 22.015625 48.324219 22.8125 47.480469 23.492188 46.53125 C 24.175781 45.578125 24.714844 44.550781 25.109375 43.449219 C 25.507812 42.347656 25.75 41.214844 25.832031 40.046875 C 26.175781 36.8125 25.230469 32.71875 23.609375 27.855469 Z M 6.332031 48.507812 C 6.054688 48.851562 5.601562 48.992188 5.179688 48.867188 C 4.757812 48.746094 4.453125 48.378906 4.410156 47.941406 C 4.363281 47.503906 4.585938 47.082031 4.96875 46.871094 C 5.355469 46.664062 5.828125 46.707031 6.171875 46.984375 C 6.636719 47.359375 6.707031 48.042969 6.332031 48.511719 Z M 23.554688 44.707031 C 20.421875 48.882812 13.734375 47.472656 9.445312 47.675781 C 9.445312 47.675781 8.683594 47.71875 7.917969 47.847656 C 7.917969 47.847656 8.207031 47.722656 8.574219 47.582031 C 11.589844 46.535156 13.011719 46.332031 14.839844 45.390625 C 18.285156 43.640625 21.695312 39.800781 22.402344 35.8125 C 21.09375 39.652344 17.113281 42.949219 13.488281 44.289062 C 11.007812 45.207031 6.523438 46.097656 6.523438 46.097656 L 6.339844 46 C 3.289062 44.515625 3.195312 37.90625 8.738281 35.773438 C 11.175781 34.835938 13.492188 35.347656 16.117188 34.722656 C 18.917969 34.054688 22.160156 31.957031 23.480469 29.214844 C 24.957031 33.601562 26.734375 40.457031 23.546875 44.707031 Z M 23.554688 44.707031 " fill-opacity="1" fill-rule="nonzero"/><g clip-path="url(#ccacdd86c0)"><path fill="#68bd45" d="M 28.542969 43.324219 C 28.265625 43.15625 28.132812 42.910156 28.148438 42.585938 C 28.144531 42.347656 28.226562 42.144531 28.398438 41.976562 C 28.566406 41.808594 28.769531 41.726562 29.007812 41.726562 C 29.167969 41.730469 29.320312 41.769531 29.460938 41.851562 C 30.261719 42.414062 31.148438 42.710938 32.128906 42.742188 C 33.039062 42.742188 33.5625 42.351562 33.5625 41.738281 L 33.5625 41.707031 C 33.5625 40.988281 32.578125 40.742188 31.496094 40.40625 C 30.128906 40.015625 28.605469 39.460938 28.605469 37.691406 L 28.605469 37.65625 C 28.605469 35.902344 30.058594 34.835938 31.898438 34.835938 C 32.925781 34.855469 33.886719 35.105469 34.792969 35.589844 C 35.128906 35.753906 35.296875 36.023438 35.300781 36.398438 C 35.300781 36.640625 35.214844 36.84375 35.042969 37.015625 C 34.871094 37.183594 34.664062 37.265625 34.425781 37.257812 C 34.273438 37.261719 34.136719 37.226562 34.003906 37.152344 C 33.25 36.757812 32.480469 36.519531 31.839844 36.519531 C 31.015625 36.519531 30.542969 36.914062 30.542969 37.433594 L 30.542969 37.46875 C 30.542969 38.152344 31.546875 38.433594 32.628906 38.78125 C 33.980469 39.207031 35.503906 39.816406 35.503906 41.484375 L 35.503906 41.519531 C 35.503906 43.464844 33.996094 44.425781 32.066406 44.425781 C 30.777344 44.417969 29.605469 44.050781 28.539062 43.320312 Z M 36.300781 35.90625 C 36.300781 35.765625 36.324219 35.628906 36.375 35.5 C 36.429688 35.367188 36.503906 35.253906 36.601562 35.152344 C 36.699219 35.050781 36.816406 34.972656 36.945312 34.917969 C 37.074219 34.863281 37.210938 34.835938 37.351562 34.835938 C 37.492188 34.835938 37.628906 34.863281 37.761719 34.917969 C 37.894531 34.972656 38.007812 35.046875 38.109375 35.148438 C 38.210938 35.25 38.285156 35.367188 38.339844 35.496094 C 38.394531 35.628906 38.421875 35.765625 38.421875 35.90625 L 38.421875 36.550781 C 39.105469 35.585938 40.066406 34.8125 41.570312 34.8125 C 43.734375 34.8125 45.863281 36.53125 45.863281 39.617188 L 45.863281 39.652344 C 45.863281 42.71875 43.757812 44.453125 41.570312 44.453125 C 40.023438 44.453125 39.058594 43.683594 38.421875 42.824219 L 38.421875 46.09375 C 38.421875 46.234375 38.394531 46.367188 38.339844 46.5 C 38.285156 46.628906 38.210938 46.742188 38.109375 46.84375 C 38.011719 46.941406 37.894531 47.019531 37.765625 47.074219 C 37.636719 47.128906 37.5 47.152344 37.359375 47.152344 C 37.21875 47.152344 37.082031 47.128906 36.953125 47.074219 C 36.824219 47.019531 36.710938 46.941406 36.609375 46.84375 C 36.511719 46.742188 36.433594 46.628906 36.378906 46.5 C 36.324219 46.367188 36.300781 46.234375 36.300781 46.09375 Z M 43.714844 39.648438 L 43.714844 39.613281 C 43.714844 37.824219 42.507812 36.660156 41.070312 36.660156 C 39.632812 36.660156 38.371094 37.855469 38.371094 39.613281 L 38.371094 39.648438 C 38.371094 41.421875 39.632812 42.601562 41.070312 42.601562 C 42.507812 42.601562 43.714844 41.472656 43.714844 39.644531 Z M 46.675781 35.910156 C 46.671875 35.769531 46.695312 35.632812 46.75 35.5 C 46.800781 35.371094 46.875 35.253906 46.976562 35.152344 C 47.074219 35.050781 47.1875 34.976562 47.320312 34.921875 C 47.449219 34.867188 47.585938 34.839844 47.726562 34.839844 C 47.867188 34.839844 48.003906 34.863281 48.136719 34.917969 C 48.265625 34.972656 48.382812 35.050781 48.484375 35.152344 C 48.585938 35.25 48.660156 35.367188 48.714844 35.5 C 48.769531 35.628906 48.796875 35.765625 48.792969 35.910156 L 48.792969 36.417969 C 48.902344 35.632812 50.199219 34.84375 51.125 34.84375 C 51.265625 34.832031 51.40625 34.855469 51.539062 34.902344 C 51.671875 34.953125 51.789062 35.027344 51.890625 35.128906 C 51.992188 35.230469 52.066406 35.347656 52.117188 35.480469 C 52.167969 35.613281 52.1875 35.753906 52.175781 35.894531 C 52.183594 36.148438 52.109375 36.371094 51.949219 36.5625 C 51.789062 36.757812 51.585938 36.875 51.335938 36.914062 C 49.828125 37.175781 48.796875 38.488281 48.796875 40.320312 L 48.796875 43.375 C 48.792969 43.515625 48.765625 43.648438 48.710938 43.777344 C 48.65625 43.910156 48.578125 44.023438 48.480469 44.121094 C 48.378906 44.21875 48.261719 44.296875 48.132812 44.347656 C 48.003906 44.402344 47.867188 44.425781 47.726562 44.425781 C 47.585938 44.425781 47.453125 44.398438 47.324219 44.347656 C 47.195312 44.292969 47.078125 44.21875 46.980469 44.117188 C 46.882812 44.019531 46.804688 43.90625 46.753906 43.777344 C 46.699219 43.648438 46.675781 43.511719 46.675781 43.375 Z M 52.980469 35.914062 C 52.976562 35.773438 53 35.636719 53.054688 35.503906 C 53.105469 35.375 53.179688 35.257812 53.28125 35.15625 C 53.378906 35.058594 53.492188 34.980469 53.625 34.925781 C 53.753906 34.871094 53.890625 34.84375 54.03125 34.84375 C 54.171875 34.84375 54.308594 34.871094 54.441406 34.925781 C 54.570312 34.976562 54.6875 35.054688 54.789062 35.15625 C 54.886719 35.257812 54.964844 35.371094 55.019531 35.503906 C 55.074219 35.636719 55.101562 35.773438 55.097656 35.914062 L 55.097656 43.378906 C 55.089844 43.664062 54.980469 43.90625 54.773438 44.105469 C 54.570312 44.300781 54.324219 44.402344 54.039062 44.402344 C 53.753906 44.402344 53.507812 44.300781 53.304688 44.105469 C 53.097656 43.90625 52.988281 43.664062 52.980469 43.378906 Z M 56.167969 35.917969 C 56.167969 35.777344 56.191406 35.640625 56.242188 35.507812 C 56.296875 35.378906 56.371094 35.261719 56.46875 35.160156 C 56.570312 35.0625 56.683594 34.984375 56.8125 34.929688 C 56.945312 34.875 57.078125 34.847656 57.222656 34.847656 C 57.363281 34.847656 57.5 34.875 57.628906 34.929688 C 57.761719 34.980469 57.878906 35.058594 57.976562 35.160156 C 58.078125 35.261719 58.15625 35.375 58.210938 35.507812 C 58.265625 35.640625 58.289062 35.777344 58.289062 35.917969 L 58.289062 36.351562 C 58.605469 35.863281 59.019531 35.484375 59.535156 35.214844 C 60.050781 34.945312 60.597656 34.820312 61.179688 34.84375 C 63.265625 34.84375 64.476562 36.246094 64.476562 38.390625 L 64.476562 43.375 C 64.480469 43.515625 64.453125 43.648438 64.402344 43.78125 C 64.347656 43.910156 64.273438 44.023438 64.171875 44.125 C 64.074219 44.222656 63.960938 44.296875 63.832031 44.351562 C 63.699219 44.402344 63.566406 44.429688 63.425781 44.425781 C 63.285156 44.429688 63.148438 44.40625 63.015625 44.355469 C 62.882812 44.300781 62.765625 44.226562 62.664062 44.128906 C 62.5625 44.027344 62.484375 43.914062 62.429688 43.78125 C 62.375 43.652344 62.347656 43.515625 62.347656 43.375 L 62.347656 39.042969 C 62.347656 37.605469 61.628906 36.777344 60.367188 36.777344 C 59.140625 36.777344 58.285156 37.640625 58.285156 39.078125 L 58.285156 43.375 C 58.273438 43.65625 58.164062 43.898438 57.960938 44.097656 C 57.753906 44.296875 57.507812 44.394531 57.222656 44.394531 C 56.9375 44.394531 56.695312 44.296875 56.488281 44.097656 C 56.28125 43.898438 56.175781 43.65625 56.164062 43.375 Z M 73.796875 34.820312 C 73.65625 34.820312 73.519531 34.847656 73.386719 34.898438 C 73.257812 34.953125 73.140625 35.03125 73.039062 35.132812 C 72.9375 35.230469 72.863281 35.347656 72.808594 35.480469 C 72.753906 35.609375 72.726562 35.746094 72.726562 35.890625 L 72.726562 36.519531 C 72.046875 35.554688 71.082031 34.78125 69.578125 34.78125 C 67.414062 34.78125 65.285156 36.5 65.285156 39.582031 L 65.285156 39.617188 C 65.277344 42.6875 67.382812 44.421875 69.574219 44.421875 C 71.105469 44.421875 72.070312 43.660156 72.722656 42.804688 C 72.617188 44.472656 71.597656 45.351562 69.808594 45.351562 C 68.792969 45.363281 67.84375 45.117188 66.960938 44.617188 C 66.839844 44.558594 66.710938 44.53125 66.578125 44.53125 C 66.332031 44.53125 66.125 44.617188 65.949219 44.785156 C 65.777344 44.957031 65.6875 45.164062 65.679688 45.40625 C 65.675781 45.597656 65.730469 45.769531 65.839844 45.925781 C 65.949219 46.078125 66.09375 46.1875 66.273438 46.25 C 67.398438 46.804688 68.589844 47.082031 69.847656 47.074219 C 71.511719 47.074219 72.808594 46.679688 73.652344 45.832031 C 74.421875 45.058594 74.832031 43.898438 74.832031 42.339844 L 74.832031 35.886719 C 74.835938 35.746094 74.808594 35.609375 74.757812 35.480469 C 74.707031 35.351562 74.632812 35.234375 74.535156 35.136719 C 74.4375 35.035156 74.328125 34.957031 74.199219 34.902344 C 74.070312 34.847656 73.9375 34.816406 73.796875 34.816406 Z M 70.082031 42.589844 C 68.625 42.589844 67.4375 41.449219 67.4375 39.625 L 67.4375 39.589844 C 67.4375 37.800781 68.644531 36.636719 70.082031 36.636719 C 71.519531 36.636719 72.78125 37.820312 72.78125 39.589844 L 72.78125 39.625 C 72.78125 41.394531 71.519531 42.589844 70.082031 42.589844 Z M 70.082031 42.589844 " fill-opacity="1" fill-rule="nonzero"/></g><path fill="#68bd45" d="M 55.109375 32.289062 C 55.109375 32.429688 55.082031 32.566406 55.027344 32.699219 C 54.972656 32.828125 54.894531 32.945312 54.796875 33.042969 C 54.695312 33.144531 54.578125 33.222656 54.449219 33.277344 C 54.316406 33.332031 54.179688 33.359375 54.039062 33.359375 C 53.898438 33.359375 53.761719 33.332031 53.628906 33.277344 C 53.5 33.222656 53.382812 33.144531 53.285156 33.042969 C 53.183594 32.945312 53.105469 32.828125 53.050781 32.699219 C 52.996094 32.566406 52.972656 32.429688 52.972656 32.289062 C 52.972656 32.144531 52.996094 32.011719 53.050781 31.878906 C 53.105469 31.746094 53.183594 31.632812 53.285156 31.53125 C 53.382812 31.433594 53.5 31.355469 53.628906 31.300781 C 53.761719 31.246094 53.898438 31.21875 54.039062 31.21875 C 54.179688 31.21875 54.316406 31.246094 54.449219 31.300781 C 54.578125 31.355469 54.695312 31.433594 54.796875 31.53125 C 54.894531 31.632812 54.972656 31.746094 55.027344 31.878906 C 55.082031 32.011719 55.109375 32.144531 55.109375 32.289062 Z M 55.109375 32.289062 " fill-opacity="1" fill-rule="nonzero"/></svg>