<svg xmlns="http://www.w3.org/2000/svg" xmlns:xlink="http://www.w3.org/1999/xlink" width="100" zoomAndPan="magnify" viewBox="0 0 75 74.999997" height="100" preserveAspectRatio="xMidYMid meet" version="1.0"><rect x="-7.5" width="90" fill="#007acc" y="-7.5" height="89.999996" fill-opacity="1"/><path fill="#ffffff" d="M 16.582031 37.746094 L 16.558594 40.820312 L 26.320312 40.820312 L 26.320312 68.558594 L 33.226562 68.558594 L 33.226562 40.820312 L 42.988281 40.820312 L 42.988281 37.808594 C 42.988281 36.140625 42.953125 34.746094 42.902344 34.710938 C 42.867188 34.664062 36.929688 34.640625 29.722656 34.652344 L 16.617188 34.6875 Z M 16.582031 37.746094 " fill-opacity="1" fill-rule="nonzero"/><path fill="#ffffff" d="M 60.519531 34.601562 C 62.421875 35.078125 63.875 35.921875 65.207031 37.304688 C 65.898438 38.042969 66.921875 39.386719 67.003906 39.707031 C 67.027344 39.804688 63.765625 41.992188 61.789062 43.222656 C 61.71875 43.269531 61.433594 42.957031 61.113281 42.484375 C 60.148438 41.078125 59.136719 40.46875 57.589844 40.363281 C 55.316406 40.210938 53.851562 41.398438 53.863281 43.386719 C 53.863281 43.972656 53.945312 44.316406 54.183594 44.792969 C 54.6875 45.828125 55.613281 46.445312 58.527344 47.710938 C 63.898438 50.019531 66.195312 51.542969 67.625 53.710938 C 69.21875 56.125 69.578125 59.980469 68.492188 62.851562 C 67.304688 65.96875 64.351562 68.089844 60.195312 68.792969 C 58.910156 69.015625 55.863281 68.980469 54.480469 68.734375 C 51.46875 68.195312 48.613281 66.707031 46.851562 64.757812 C 46.160156 63.996094 44.816406 62.007812 44.898438 61.863281 C 44.9375 61.816406 45.242188 61.625 45.589844 61.421875 C 45.921875 61.234375 47.1875 60.507812 48.375 59.816406 L 50.527344 58.566406 L 50.984375 59.230469 C 51.613281 60.195312 52.996094 61.515625 53.828125 61.960938 C 56.222656 63.21875 59.503906 63.039062 61.125 61.589844 C 61.816406 60.957031 62.101562 60.304688 62.101562 59.339844 C 62.101562 58.46875 61.996094 58.089844 61.542969 57.4375 C 60.957031 56.601562 59.769531 55.898438 56.386719 54.4375 C 52.519531 52.769531 50.851562 51.730469 49.328125 50.089844 C 48.445312 49.136719 47.613281 47.613281 47.269531 46.339844 C 46.980469 45.28125 46.910156 42.625 47.136719 41.554688 C 47.9375 37.816406 50.757812 35.207031 54.828125 34.433594 C 56.148438 34.1875 59.222656 34.28125 60.519531 34.601562 Z M 60.519531 34.601562 " fill-opacity="1" fill-rule="nonzero"/></svg>